<?xml version="1.0" encoding="UTF-8" standalone="no"?>
<!-- Created with Inkscape (http://www.inkscape.org/) -->

<svg
   xmlns:dc="http://purl.org/dc/elements/1.1/"
   xmlns:cc="http://creativecommons.org/ns#"
   xmlns:rdf="http://www.w3.org/1999/02/22-rdf-syntax-ns#"
   xmlns:svg="http://www.w3.org/2000/svg"
   xmlns="http://www.w3.org/2000/svg"
   xmlns:sodipodi="http://sodipodi.sourceforge.net/DTD/sodipodi-0.dtd"
   xmlns:inkscape="http://www.inkscape.org/namespaces/inkscape"
   id="svg2"
   sodipodi:docname="crash.svg"
   inkscape:export-filename="C:\Documents and Settings\Propietario\Mis documentos\Diseños\Inkscape\There She Is - Forbidden.png"
   viewBox="0 0 128 128"
   inkscape:export-xdpi="90"
   version="1.1"
   inkscape:export-ydpi="90"
   inkscape:version="0.91 r13725"
   width="128"
   height="128">
  <defs
     id="defs4">
    <linearGradient
       id="linearGradient6640">
      <stop
         id="stop6642"
         style="stop-color:#ffffff"
         offset="0" />
      <stop
         id="stop6644"
         style="stop-color:#ffffff;stop-opacity:0"
         offset="1" />
    </linearGradient>
  </defs>
  <sodipodi:namedview
     id="base"
     fit-margin-left="0"
     inkscape:zoom="2"
     borderopacity="1.0"
     inkscape:current-layer="layer10"
     inkscape:cx="273.54336"
     inkscape:cy="-4.306214"
     inkscape:window-maximized="1"
     showgrid="false"
     fit-margin-right="0"
     showguides="true"
     bordercolor="#666666"
     inkscape:window-x="0"
     inkscape:guide-bbox="true"
     inkscape:window-y="24"
     fit-margin-bottom="0"
     inkscape:window-width="1920"
     inkscape:pageopacity="0.0"
     inkscape:pageshadow="2"
     pagecolor="#ffffff"
     inkscape:document-units="px"
     inkscape:window-height="1056"
     fit-margin-top="0" />
  <g
     id="layer10"
     inkscape:label="Corazón"
     inkscape:groupmode="layer"
     transform="translate(663.66,675.86001)">
    <rect
       id="rect6601"
       style="fill:#000000"
       height="1.5647138"
       width="60.04557"
       y="-591.66254"
       x="-629.80878" />
    <rect
       id="rect6603"
       style="fill:#000000"
       height="1.5647138"
       width="33.836632"
       y="-577.58051"
       x="-616.70135" />
    <rect
       id="rect3670"
       style="fill:#ffda00;stroke:#000000;stroke-width:2.00000161;stroke-miterlimit:4;stroke-dasharray:none"
       transform="matrix(-0.7064715,-0.70774149,0.7064715,-0.70774149,0,0)"
       rx="10.560514"
       ry="10.560514"
       height="94.91552"
       width="94.91552"
       y="-39.726173"
       x="809.26031" />
    <rect
       id="rect3670-1"
       style="fill:#ffda00;stroke:#000000;stroke-width:2.00000858;stroke-miterlimit:4;stroke-dasharray:none"
       transform="matrix(-0.70857027,-0.70564026,0.70857027,-0.70564026,0,0)"
       rx="6.8004866"
       ry="6.8004866"
       height="83.093147"
       width="83.093147"
       y="-31.271078"
       x="815.19849" />
    <path
       style="fill:#000000"
       d="m -598.83888,-576.54177 c -0.16487,-0.007 -2.12836,-0.3362 -4.47314,-0.47874 -3.8428,-0.2336 -5.42829,-0.41325 -9.35251,-1.0596 -1.52092,-0.2505 -2.6759,-1.09686 -2.42186,-1.7747 0.10245,-0.2734 0.50362,-0.49709 0.89147,-0.49709 0.38785,0 0.80498,-0.10296 0.92695,-0.22901 0.12196,-0.12594 0.83086,-0.36641 1.57531,-0.53435 1.31835,-0.2974 1.37306,-0.357 2.10234,-2.2901 0.98549,-2.61221 2.66214,-9.33191 3.04746,-12.21382 0.16842,-1.25956 0.76746,-4.41988 1.33121,-7.02295 0.56376,-2.60309 1.30814,-6.90063 1.65422,-9.55013 0.34605,-2.64949 0.70054,-5.00763 0.78772,-5.24031 0.11489,-0.30651 -0.30858,-0.5301 -1.5371,-0.81162 -3.26734,-0.74869 -3.32706,-1.75977 -0.41314,-6.99354 0.23376,-0.41985 0.50285,-0.83207 0.598,-0.91603 0.095,-0.0839 0.36274,-0.59925 0.59466,-1.14505 0.55223,-0.94721 0.7078,-1.70142 1.23382,-2.46158 0.28294,-0.28973 -0.0596,-0.81623 -1.57967,-2.4275 -1.06754,-1.13164 -3.4692,-3.69746 -5.33702,-5.70184 -2.18019,-2.33956 -3.64477,-3.67145 -4.09078,-3.72013 -1.27024,-0.13867 -6.30008,5.25486 -10.00011,10.72324 -3.6363,5.37416 -7.73282,13.48038 -10.40105,20.58158 l -1.30843,3.48222 -0.0888,-3.0242 c -0.27535,-9.3993 3.74889,-18.86678 13.83,-32.53647 1.7091,-2.31749 3.10746,-4.32647 3.10746,-4.4644 0,-0.13794 0.50321,-0.74526 1.11827,-1.34963 l 1.1183,-1.09882 2.53476,2.87042 c 4.73338,5.36011 11.70959,12.94387 11.90695,12.94387 0.10809,0 0.35382,-0.7679 0.54607,-1.70642 0.24353,-1.18884 0.80713,-2.36968 1.85813,-3.89315 0.82971,-1.20273 2.04411,-3.05344 2.69866,-4.1127 1.43576,-2.32353 2.60089,-2.96289 4.94742,-2.71492 2.2702,0.2399 3.03922,0.74378 6.03898,3.95686 l 1.30647,1.39934 -0.90363,1.97727 c -0.497,1.08746 -1.43233,2.79223 -2.07851,3.78836 l -1.1749,1.81114 0.89036,3.4876 c 0.74233,2.90772 0.91309,4.25855 1.02713,8.12469 l 0.13678,4.6371 7.12477,7.7294 c 3.91862,4.25117 7.11771,7.7981 7.1091,7.88207 -0.008,0.0839 -0.40721,0.4692 -0.88573,0.85608 l -0.87006,0.70339 -2.77998,-2.99348 c -1.52902,-1.64643 -4.25009,-4.57858 -6.04683,-6.51588 l -3.26681,-3.52239 -0.0895,1.27174 c -0.0491,0.69947 0.10938,2.14944 0.35234,3.22216 1.06714,4.71157 0.97146,8.52559 -0.57879,23.07077 -0.55434,5.20103 -0.55876,5.12356 0.31587,5.5316 0.77811,0.36302 1.77347,1.08973 1.20123,1.45187 -1.28919,0.81583 -12.90947,1.56117 -14.23414,1.49778 z"
       id="path4146"
       inkscape:connector-curvature="0"
       sodipodi:nodetypes="ssssscssssscsssccssssscsssscssssssscsscsscscscsscssssss" />
  </g>
  <metadata
     id="metadata4363">
    <rdf:RDF>
      <cc:Work>
        <dc:format>image/svg+xml</dc:format>
        <dc:type
           rdf:resource="http://purl.org/dc/dcmitype/StillImage" />
        <cc:license
           rdf:resource="http://creativecommons.org/publicdomain/zero/1.0/" />
        <dc:publisher>
          <cc:Agent
             rdf:about="http://openclipart.org/">
            <dc:title>Openclipart</dc:title>
          </cc:Agent>
        </dc:publisher>
        <dc:title>Watch Your Brain</dc:title>
        <dc:date>2011-09-10T08:07:02</dc:date>
        <dc:description>Zombie Crossing Signal (Zombie Silhouette remixed from &quot;cliparteles&quot;)</dc:description>
        <dc:source>https://openclipart.org/detail/159793/watch-your-brain-by-maw</dc:source>
        <dc:creator>
          <cc:Agent>
            <dc:title>Maw</dc:title>
          </cc:Agent>
        </dc:creator>
        <dc:subject>
          <rdf:Bag>
            <rdf:li>alerta</rdf:li>
            <rdf:li>brain</rdf:li>
            <rdf:li>cerebro</rdf:li>
            <rdf:li>crossing</rdf:li>
            <rdf:li>cruce</rdf:li>
            <rdf:li>cuidado</rdf:li>
            <rdf:li>post</rdf:li>
            <rdf:li>poste</rdf:li>
            <rdf:li>señal</rdf:li>
            <rdf:li>signal</rdf:li>
            <rdf:li>traffic</rdf:li>
            <rdf:li>trafico</rdf:li>
            <rdf:li>warning</rdf:li>
            <rdf:li>watch</rdf:li>
            <rdf:li>yellow</rdf:li>
            <rdf:li>your</rdf:li>
            <rdf:li>zombi</rdf:li>
            <rdf:li>zombie</rdf:li>
          </rdf:Bag>
        </dc:subject>
      </cc:Work>
      <cc:License
         rdf:about="http://creativecommons.org/publicdomain/zero/1.0/">
        <cc:permits
           rdf:resource="http://creativecommons.org/ns#Reproduction" />
        <cc:permits
           rdf:resource="http://creativecommons.org/ns#Distribution" />
        <cc:permits
           rdf:resource="http://creativecommons.org/ns#DerivativeWorks" />
      </cc:License>
    </rdf:RDF>
  </metadata>
</svg>
