<?xml version="1.0" encoding="UTF-8" standalone="no"?>
<!-- Created with Inkscape (http://www.inkscape.org/) -->

<svg
   xmlns:osb="http://www.openswatchbook.org/uri/2009/osb"
   xmlns:dc="http://purl.org/dc/elements/1.1/"
   xmlns:cc="http://creativecommons.org/ns#"
   xmlns:rdf="http://www.w3.org/1999/02/22-rdf-syntax-ns#"
   xmlns:svg="http://www.w3.org/2000/svg"
   xmlns="http://www.w3.org/2000/svg"
   xmlns:xlink="http://www.w3.org/1999/xlink"
   xmlns:sodipodi="http://sodipodi.sourceforge.net/DTD/sodipodi-0.dtd"
   xmlns:inkscape="http://www.inkscape.org/namespaces/inkscape"
   id="svg6180"
   version="1.1"
   inkscape:version="0.91 r13725"
   width="267.5"
   height="251.25"
   viewBox="0 0 267.5 251.25"
   sodipodi:docname="numeratorregex.svg">
  <metadata
     id="metadata6186">
    <rdf:RDF>
      <cc:Work
         rdf:about="">
        <dc:format>image/svg+xml</dc:format>
        <dc:type
           rdf:resource="http://purl.org/dc/dcmitype/StillImage" />
        <dc:title />
      </cc:Work>
    </rdf:RDF>
  </metadata>
  <defs
     id="defs6184">
    <linearGradient
       id="linearGradient8485"
       osb:paint="solid">
      <stop
         style="stop-color:#18b1db;stop-opacity:1;"
         offset="0"
         id="stop8487" />
    </linearGradient>
    <clipPath
       clipPathUnits="userSpaceOnUse"
       id="clipPath3607">
      <path
         d="m 2467.22,218.891 c -0.06,0 -0.13,0 -0.19,0 0.06,0 0.12,0 0.19,0 m -0.25,0 c -0.05,0 -0.08,0 -0.13,0 0.04,0 0.09,0 0.13,0 m -0.2,0 c -0.04,0 -0.08,0 -0.12,0 0.04,0 0.08,0 0.12,0 m -0.19,0 c -0.04,0 -0.08,0 -0.12,0 0.04,0 0.08,0 0.12,0 m -0.19,0 c -0.05,0.007 -0.09,0.007 -0.14,0.007 0.05,0 0.1,0 0.14,-0.007 m -0.18,0.007 c -0.07,0 -0.13,0 -0.19,0 0.06,0 0.12,0 0.19,0 m -0.22,0 c -0.05,0 -0.11,0 -0.16,0 0.05,0 0.11,0 0.16,0 m -0.21,0 c -0.05,0 -0.1,0 -0.14,0 0.04,0 0.09,0 0.14,0 m -0.2,0 c -0.05,0 -0.1,0 -0.14,0.012 0.05,-0.012 0.09,-0.012 0.14,-0.012 m -0.19,0.012 c -0.05,0 -0.1,0 -0.16,0 0.06,0 0.11,0 0.16,0 m -0.19,0 c -0.19,0 -0.39,0.012 -0.59,0.012 0.2,0 0.39,-0.012 0.59,-0.012 m -0.61,0.012 c -0.06,0 -0.11,0 -0.17,0.008 0.06,-0.008 0.11,-0.008 0.17,-0.008 m -0.2,0.008 c -0.06,0 -0.12,0 -0.17,0 0.05,0 0.11,0 0.17,0 m -0.2,0 c -0.06,0 -0.12,0 -0.18,0.011 0.07,-0.011 0.12,-0.011 0.18,-0.011 m -0.19,0.011 c -0.27,0 -0.54,0.008 -0.81,0.02 0.27,-0.012 0.54,-0.02 0.81,-0.02 m -0.81,0.02 c -57.34,1.969 -126.11,45.609 -76.15,107.738 26.63,33.11 72.13,127.582 1.92,180.321 -24.06,32.601 -76.55,56.75 -178.05,56.75 -269.53,0 -193.89,-170.149 -156.15,-217.071 51.13,-63.59 -22.11,-107.808 -80.16,-107.808 -75.27,0 -227.58,6.461 -400.1,73.379 72.08,178.242 78.74,336.691 78.74,413.968 0,34.16 -15.33,73.602 -40.89,89.84 -11.31,16.383 -26.77,27.57 -45.32,27.57 -12.56,0 -26.53,-5.117 -41.6,-17.238 -20.07,-16.16 -62.7,-39.219 -104.92,-39.219 -19.12,0 -38.16,4.731 -54.98,16.989 20.73,-27.301 47.83,-36.918 75.1,-36.918 1.51,0 3.02,0.027 4.52,0.09 -1.99,-0.114 -3.99,-0.18 -5.99,-0.192 -55.98,0.629 -110.8,42.422 -110.8,195.379 0,153.281 55.02,194.931 111.12,195.401 41.89,-0.38 84,-23.23 103.91,-39.24 15.08,-12.13 29.07,-17.26 41.64,-17.26 0.33,0 0.67,0.01 1.01,0.01 0.34,-0.01 0.68,-0.01 1.02,-0.01 40.43,0 66.18,53.13 66.18,97.41 0,78.49 -6.86,240.67 -82.12,422.26 182.08,75.73 344.82,82.63 423.48,82.63 0.08,0 0.17,-0.01 0.25,-0.01 0.01,0 0.04,0 0.05,0 0.08,0 0.17,0 0.25,0 0.01,0 0.02,0 0.03,0 0.18,0 0.36,0 0.53,0 0.01,0 0.02,0 0.02,0 0.09,0 0.18,0 0.27,0 l 0.01,0 c 23.56,-0.29 49.41,-7.79 68.35,-20.83 -0.02,0.02 -0.03,0.04 -0.04,0.05 0.83,-0.56 1.64,-1.14 2.44,-1.73 8.88,-17.22 7.46,-38.6 -12,-62.8 -26.08,-32.43 -70.09,-123.63 -5.96,-176.93 21.58,-34.91 72.72,-61.67 176.44,-62.61 0.02,0 0.04,0 0.07,0 0.06,0 0.17,0 0.23,0 0.04,0 0.07,0 0.11,0 0.16,0 0.33,0 0.49,0 0.01,0 0.01,0 0.03,0 0.06,-0.01 0.11,-0.01 0.18,-0.01 0.05,0 0.1,0 0.16,0 0.06,0 0.11,0 0.18,0 0.06,0 0.11,0 0.17,0 0.06,0 0.11,0 0.18,0 0.1,0 0.2,0 0.3,0 0.07,0 0.1,0 0.16,0 0.06,0 0.13,0 0.19,0 0.06,0 0.1,0 0.17,0 0.06,-0.01 0.13,-0.01 0.2,-0.01 0.05,0 0.09,0 0.14,0 0.11,0 0.22,0 0.33,0 0.02,0 0.07,0 0.09,0 0.08,0 0.18,0 0.27,0 0.03,0 0.09,0 0.12,0 0.08,0 0.16,0 0.24,0 0.05,0 0.08,0 0.13,0 0.11,0 0.22,0 0.34,0 0.01,0 0.06,0 0.07,0 0.1,0 0.18,0 0.27,0 0.05,0 0.09,0 0.14,0 0.08,0 0.16,0 0.24,0 0.05,0 0.07,0 0.12,0 0.12,0 0.23,0 0.35,0 154.1,0 195.36,55.62 195.39,112.04 0,0.58 0,1.17 -0.01,1.75 0.28,42.49 -22.99,85.56 -39.25,105.77 -11.72,14.58 -16.91,28.13 -17.23,40.37 1.07,39.72 53.58,64.95 97.41,64.95 75.16,0 227.12,-6.3 399.39,-72.98 -71.28,-177.36 -78.05,-334.92 -78.05,-411.89 0,-34.11 15.3,-73.45 40.79,-89.73 11.31,-16.46 26.8,-27.7 45.41,-27.7 12.56,0 26.55,5.13 41.62,17.26 20.08,16.16 62.73,39.26 104.97,39.26 54.97,0 109.22,-39.14 111.99,-183.659 -1.81,94.259 -25.53,143.649 -57.06,166.619 22.21,-29.23 37.17,-78.59 37.17,-158.361 0,-154.137 -55.67,-195.387 -112.1,-195.399 -42.24,0 -84.89,23.102 -104.97,39.25 -15.07,12.121 -29.07,17.262 -41.63,17.262 -40.44,0 -66.19,-53.133 -66.19,-97.422 0,-78.781 6.92,-241.91 83.01,-424.352 -182.46,-76.089 -345.58,-83.007 -424.35,-83.007 -23.95,0 -50.45,7.531 -69.78,20.828 15.63,-24.539 52.59,-39.617 85.75,-40.758 m -49.48,291.848 c 4.56,-5.93 8.47,-12.278 11.71,-19.047 27.93,-58.321 -4.31,-132.192 -32.79,-167.59 -18.52,-23.031 -12.29,-36.063 -10.24,-40.34 3.56,-7.402 10.71,-14.262 19.96,-19.91 -2.09,4.348 -8.14,17.348 10.28,40.25 28.48,35.406 60.72,109.269 32.79,167.59 -7.25,15.117 -17.91,28.09 -31.71,39.047 m -777.3,309.519 c 16.95,-22.699 26.83,-53.918 26.83,-84.09 0,-145.136 -25.88,-284.09 -76.95,-413.328 8.01,-3.16 16.05,-6.219 24.13,-9.172 48.29,126.172 72.82,261.391 72.82,402.5 0,40.602 -17.82,83.133 -46.83,104.09 m -205.96,327.612 c -76.11,0 -92.09,-95.38 -92.09,-175.401 0,-62.848 10,-134.98 51.12,-163.109 -24.52,34.789 -31.12,92.019 -31.12,143.109 0,80.021 15.98,175.401 92.09,175.401 38.87,0 77.47,-22.78 92.45,-34.83 17.88,-14.37 36.1,-21.67 54.16,-21.67 51.55,0.01 86.18,60.71 86.18,117.41 0,145.16 -25.88,284.12 -76.95,413.37 124.46,49.11 258.35,74 398.31,74 19.72,0 40,-5.96 54.84,-15.03 l 0,0 0,0 -0.04,0.08 c -9.22,19.27 -42.79,34.95 -74.8,34.95 -139.96,0 -273.85,-24.89 -398.31,-74 51.07,-129.25 76.95,-268.21 76.95,-413.37 0,-56.7 -34.63,-117.4 -86.18,-117.41 -18.06,0 -36.28,7.29 -54.16,21.67 -14.98,12.05 -53.58,34.83 -92.45,34.83 m 1394.66,-43.17 c 15.9,-21.54 36.76,-33.32 59.65,-33.32 18.06,0 36.27,7.29 54.16,21.66 14.98,12.05 53.56,34.84 92.44,34.84 16.33,0 29.74,-4.59 40.97,-12.28 l 0,0 0,0 c -13.88,19.71 -33.45,32.28 -60.97,32.28 -38.88,0 -77.46,-22.79 -92.44,-34.84 -17.89,-14.38 -36.1,-21.66 -54.16,-21.66 -14.25,0 -27.67,4.69 -39.65,13.32 m -777.02,309.54 c 32.1,-41.8 96.8,-62.96 192.82,-62.96 109.65,0 178.44,27.6 204.51,82.01 27.93,58.33 -4.31,132.19 -32.79,167.6 -18.52,23.01 -12.29,36.03 -10.24,40.3 9.24,19.28 42.8,34.96 74.83,34.96 130.95,0 256.6,-21.81 374.17,-64.85 1.37,3.62 2.7,7.24 4.13,10.84 -124.46,49.11 -258.34,74.01 -398.3,74.01 -32.03,0 -65.59,-15.68 -74.83,-34.96 -2.05,-4.27 -8.28,-17.29 10.24,-40.3 28.48,-35.41 60.72,-109.27 32.79,-167.6 -26.07,-54.41 -94.86,-82.01 -204.51,-82.01 -79.18,0 -136.96,14.47 -172.82,42.96 m -477.85,-1112.412 0,0 c 0.02,0.063 0.05,0.122 0.07,0.18 -0.02,-0.058 -0.05,-0.117 -0.07,-0.18 m 662.54,241.872 c -0.01,0 -0.02,0 -0.04,0 0.01,0 0.03,0 0.04,0 m -0.42,0 c -0.04,0 -0.07,0 -0.12,0 0.04,0 0.08,0 0.12,0 m -0.44,0 c -0.04,0 -0.09,0 -0.13,0 0.04,0 0.09,0 0.13,0 m -0.47,0 c -0.03,0 -0.07,0 -0.1,0 0.03,0 0.07,0 0.1,0 m 902,419.199 c 0,0.031 0,0.062 0,0.09 0,-0.028 0,-0.059 0,-0.09 m 0,0.48 c 0,0.02 0,0.031 0,0.051 0,-0.012 0,-0.039 0,-0.051 m 0,0.41 c 0,0.039 0,0.071 0,0.11 0,-0.047 0,-0.059 0,-0.11 m -0.01,0.493 c 0,0.019 0,0.039 0,0.058 0,-0.031 0,-0.019 0,-0.058 m 0,0.41 c 0,0.027 0,0.066 0,0.097 0,-0.031 0,-0.07 0,-0.097 m 0,0.476 c 0,0.032 0,0.063 0,0.09 0,-0.027 0,-0.058 0,-0.09 m 0,0.403 c 0,0.039 0,0.078 0,0.129 0,-0.032 0,-0.098 0,-0.129 m 0,0.488 c 0,0.043 0,0.07 0,0.109 0,-0.039 0,-0.066 0,-0.109 m -0.01,0.391 c 0,0.05 0,0.089 0,0.14 0,-0.051 0,-0.09 0,-0.14 m 0,0.5 c 0,0.031 0,0.062 0,0.101 0,-0.039 0,-0.07 0,-0.101 m 0,0.402 c 0,0.047 0,0.078 0,0.129 0,-0.051 0,-0.082 0,-0.129 m -0.01,0.476 c 0,0.051 0,0.09 0,0.141 0,-0.051 0,-0.09 0,-0.141 m 0,0.403 c 0,0.039 0,0.09 0,0.129 0,-0.051 0,-0.09 0,-0.129 m 0,0.48 c 0,0.051 0,0.098 -0.01,0.141 0.01,-0.051 0.01,-0.09 0.01,-0.141 m -0.01,0.379 c 0,0.07 0,0.11 0,0.168 0,-0.058 0,-0.098 0,-0.168 m 0,0.5 c 0,0.059 0,0.11 -0.01,0.18 0.01,-0.07 0.01,-0.121 0.01,-0.18 m -0.01,0.371 c 0,0.059 0,0.117 0,0.18 0,-0.063 0,-0.121 0,-0.18 m 0,0.5 c 0,0.059 -0.01,0.117 -0.01,0.18 0,-0.07 0.01,-0.121 0.01,-0.18 m -0.01,0.379 c 0,0.059 0,0.121 0,0.192 0,-0.063 0,-0.133 0,-0.192 m -0.01,0.488 c 0,0.071 0,0.141 0,0.211 0,-0.07 0,-0.148 0,-0.211 m 0,0.372 c 0,0.058 0,0.128 0,0.199 0,-0.071 0,-0.141 0,-0.199 m -0.01,0.5 c 0,0.07 0,0.152 0,0.218 0,-0.058 0,-0.16 0,-0.218 m 0,0.351 c -0.01,0.258 -0.01,0.52 -0.02,0.777 0.01,-0.25 0.01,-0.519 0.02,-0.777 m -0.02,0.82 c 0,0.278 -0.01,0.559 -0.01,0.829 0,-0.282 0.01,-0.54 0.01,-0.829 m -324.78,224.309 0,0 0,0 m 0,0.27 c 0,0.01 0,0.01 0,0.02 0,-0.01 0,-0.01 0,-0.02 m 0,0.28 c 0,0.01 0,0.01 0,0.02 0,-0.01 0,-0.01 0,-0.02 m 0,0.28 c 0,0.01 0,0.01 0,0.02 0,-0.01 0,-0.02 0,-0.02 m -733.89,399.75 0.01,0.01 -0.01,-0.01 m 14.19,24.34 c 0,0 0,0 0.01,0.01 -0.01,-0.01 -0.01,-0.01 -0.01,-0.01 m 0.06,0.16 c 0.01,0.01 0.01,0.02 0.01,0.04 0,-0.02 0,-0.03 -0.01,-0.04 m 0.05,0.13 c 0.01,0.05 0.03,0.09 0.04,0.13 -0.01,-0.04 -0.03,-0.08 -0.04,-0.13 m 0.05,0.17 c 1.89,5.46 2.84,10.72 2.96,15.76 0,-0.03 0,-0.06 0,-0.09 -0.13,-5.01 -1.08,-10.24 -2.96,-15.67"
         id="path3609"
         inkscape:connector-curvature="0" />
    </clipPath>
    <linearGradient
       x1="0"
       y1="0"
       x2="1"
       y2="0"
       gradientUnits="userSpaceOnUse"
       gradientTransform="matrix(836.231,-1456.36,-1456.36,-836.231,1813.44,1689.6)"
       spreadMethod="pad"
       id="linearGradient3611">
      <stop
         style="stop-opacity:1;stop-color:#ff4300"
         offset="0"
         id="stop3613" />
      <stop
         style="stop-opacity:1;stop-color:#ff4300"
         offset="0.29044801"
         id="stop3615" />
      <stop
         style="stop-opacity:1;stop-color:#c70007"
         offset="1"
         id="stop3617" />
    </linearGradient>
    <clipPath
       clipPathUnits="userSpaceOnUse"
       id="clipPath3627">
      <path
         d="m 2048.8,1441.49 c -64.13,53.3 -20.12,144.5 5.96,176.93 19.46,24.2 20.88,45.58 12,62.8 14.73,-10.86 24.74,-25.25 25.23,-42.33 -0.12,-5.04 -1.07,-10.3 -2.96,-15.76 0,-0.01 -0.01,-0.03 -0.01,-0.04 -0.01,-0.04 -0.03,-0.08 -0.04,-0.13 -0.01,-0.03 -0.03,-0.06 -0.04,-0.09 0,-0.02 0,-0.03 -0.01,-0.04 -0.02,-0.05 -0.04,-0.1 -0.05,-0.15 -0.01,-0.01 -0.01,-0.01 -0.01,-0.01 -2.73,-7.71 -7.32,-15.8 -14.11,-24.25 -0.03,-0.03 -0.05,-0.05 -0.07,-0.08 l -0.01,-0.01 c -16.3,-20.32 -39.63,-63.56 -39.17,-106.13 -0.18,-17.48 3.53,-34.93 13.29,-50.71"
         id="path3629"
         inkscape:connector-curvature="0" />
    </clipPath>
    <linearGradient
       x1="0"
       y1="0"
       x2="1"
       y2="0"
       gradientUnits="userSpaceOnUse"
       gradientTransform="matrix(836.231,-1456.36,-1456.36,-836.231,1813.44,1689.6)"
       spreadMethod="pad"
       id="linearGradient3631">
      <stop
         style="stop-opacity:1;stop-color:#862300"
         offset="0"
         id="stop3633" />
      <stop
         style="stop-opacity:1;stop-color:#862300"
         offset="0.29044801"
         id="stop3635" />
      <stop
         style="stop-opacity:1;stop-color:#690004"
         offset="1"
         id="stop3637" />
    </linearGradient>
    <clipPath
       clipPathUnits="userSpaceOnUse"
       id="clipPath3647">
      <path
         d="m 2467.22,218.891 0,0 c -0.07,0 -0.13,0 -0.19,0 -0.02,0 -0.04,0 -0.06,0 -0.04,0 -0.09,0 -0.13,0 -0.02,0 -0.04,0 -0.07,0 -0.04,0 -0.08,0 -0.12,0 -0.02,0 -0.04,0 -0.07,0 -0.04,0 -0.08,0 -0.12,0 -0.02,0 -0.05,0 -0.07,0 -0.04,0.007 -0.09,0.007 -0.14,0.007 -0.01,0 -0.03,0 -0.04,0 -0.07,0 -0.13,0 -0.19,0 -0.01,0 -0.02,0 -0.03,0 -0.05,0 -0.11,0 -0.16,0 -0.02,0 -0.04,0 -0.05,0 -0.05,0 -0.1,0 -0.14,0 -0.02,0 -0.04,0 -0.06,0 -0.05,0 -0.09,0 -0.14,0.012 -0.02,0 -0.03,0 -0.05,0 -0.05,0 -0.1,0 -0.16,0 -0.01,0 -0.02,0 -0.03,0 -0.2,0 -0.39,0.012 -0.59,0.012 0,0 -0.01,0 -0.02,0 -0.06,0 -0.11,0 -0.17,0.008 -0.01,0 -0.02,0 -0.03,0 -0.06,0 -0.12,0 -0.17,0 -0.01,0 -0.02,0 -0.03,0 -0.06,0 -0.11,0 -0.18,0.011 l -0.01,0 c -0.27,0 -0.54,0.008 -0.81,0.02 l 0,0 c -33.16,1.141 -70.12,16.219 -85.75,40.758 19.33,-13.297 45.83,-20.828 69.78,-20.828 78.77,0 241.89,6.918 424.35,83.007 -76.09,182.442 -83.01,345.571 -83.01,424.352 0,44.289 25.75,97.422 66.19,97.422 12.56,0 26.56,-5.141 41.63,-17.262 20.08,-16.148 62.73,-39.25 104.97,-39.25 56.43,0.012 112.1,41.262 112.1,195.399 0,79.771 -14.96,129.131 -37.17,158.361 31.53,-22.97 55.25,-72.36 57.06,-166.619 l 0,-0.031 c 0,-0.27 0.01,-0.551 0.01,-0.829 0,-0.011 0,-0.019 0,-0.043 0.01,-0.257 0.01,-0.519 0.02,-0.777 0,-0.051 0,-0.082 0,-0.133 0,-0.066 0,-0.148 0,-0.218 0,-0.11 0,-0.188 0.01,-0.301 0,-0.071 0,-0.141 0,-0.199 0,-0.051 0,-0.11 0,-0.161 0,-0.07 0,-0.14 0,-0.211 0.01,-0.109 0.01,-0.187 0.01,-0.296 0,-0.071 0,-0.133 0,-0.192 0,-0.07 0,-0.14 0,-0.199 0,-0.063 0.01,-0.121 0.01,-0.18 0,-0.101 0,-0.222 0,-0.32 0,-0.063 0,-0.121 0,-0.18 0,-0.062 0,-0.133 0,-0.191 0.01,-0.07 0.01,-0.121 0.01,-0.18 0,-0.101 0,-0.23 0,-0.332 0,-0.058 0,-0.098 0,-0.168 0,-0.082 0,-0.16 0,-0.238 0.01,-0.043 0.01,-0.09 0.01,-0.141 0,-0.109 0,-0.242 0,-0.351 0,-0.039 0,-0.09 0,-0.129 0,-0.082 0,-0.18 0,-0.262 0,-0.051 0,-0.09 0,-0.141 0.01,-0.109 0.01,-0.238 0.01,-0.347 0,-0.051 0,-0.082 0,-0.129 0,-0.094 0,-0.211 0,-0.301 0,-0.039 0,-0.07 0,-0.101 0,-0.11 0,-0.25 0,-0.36 0,-0.051 0,-0.09 0,-0.14 0.01,-0.098 0.01,-0.188 0.01,-0.282 0,-0.039 0,-0.066 0,-0.109 0,-0.129 0,-0.231 0,-0.359 0,-0.051 0,-0.09 0,-0.129 0,-0.121 0,-0.192 0,-0.313 0,-0.027 0,-0.058 0,-0.09 0,-0.109 0,-0.269 0,-0.379 0,-0.031 0,-0.07 0,-0.097 0,-0.121 0,-0.242 0,-0.352 0,-0.019 0,-0.039 0,-0.058 0,-0.114 0,-0.262 0.01,-0.383 0,-0.039 0,-0.071 0,-0.11 0,-0.121 0,-0.238 0,-0.359 0,-0.02 0,-0.031 0,-0.051 0,-0.129 0,-0.258 0,-0.39 0,-0.028 0,-0.059 0,-0.09 0,-0.141 0,-0.27 0,-0.41 l 0,0 c 0,-154.161 -55.67,-195.399 -112.1,-195.399 -42.23,0 -84.89,23.102 -104.97,39.25 -15.08,12.129 -29.06,17.262 -41.63,17.262 -40.44,0 -66.19,-53.133 -66.19,-97.422 l 0,0 0,0 c 0,-78.781 6.92,-241.91 83.01,-424.352 -182.46,-76.089 -345.58,-83.007 -424.35,-83.007"
         id="path3649"
         inkscape:connector-curvature="0" />
    </clipPath>
    <clipPath
       clipPathUnits="userSpaceOnUse"
       id="clipPath3667">
      <path
         d="m 2829.35,1129.14 c -25.49,16.28 -40.79,55.62 -40.79,89.73 0,76.97 6.77,234.53 78.05,411.89 7.98,-3.09 16.02,-6.31 24.08,-9.66 -75.26,-181.58 -82.13,-343.77 -82.13,-422.23 l 0,0 0,0 0,0 c 0,-0.09 0,-0.18 0.01,-0.27 0,-0.01 0,-0.01 0,-0.02 0,-0.09 0,-0.17 0,-0.26 0,-0.01 0,-0.01 0,-0.02 0,-0.09 0,-0.18 0,-0.26 0,-0.01 0,-0.01 0,-0.02 0,-0.09 0,-0.18 0,-0.27 l 0,0 c 0.23,-23.62 7.71,-49.6 20.78,-68.61"
         id="path3669"
         inkscape:connector-curvature="0" />
    </clipPath>
    <clipPath
       clipPathUnits="userSpaceOnUse"
       id="clipPath3687">
      <path
         d="m 1440.63,767.262 c -27.27,0 -54.37,9.617 -75.1,36.918 16.82,-12.258 35.86,-16.989 54.98,-16.989 42.22,0 84.85,23.059 104.92,39.219 15.07,12.121 29.04,17.238 41.6,17.238 18.55,0 34.01,-11.187 45.32,-27.57 -7.58,4.813 -16.05,7.582 -25.3,7.582 -0.32,0 -0.65,0 -0.98,-0.012 -0.35,0.012 -0.69,0.012 -1.04,0.012 -12.57,0 -26.56,-5.121 -41.64,-17.25 -19.01,-15.301 -58.27,-36.82 -98.24,-39.058 -1.5,-0.063 -3.01,-0.09 -4.52,-0.09"
         id="path3689"
         inkscape:connector-curvature="0" />
    </clipPath>
    <clipPath
       clipPathUnits="userSpaceOnUse"
       id="clipPath3707">
      <path
         d="m 1994.6,218.891 c -78.78,0 -241.92,6.918 -424.36,83.007 0.02,0.063 0.05,0.122 0.07,0.18 1.42,3.402 2.82,6.801 4.19,10.192 172.52,-66.918 324.83,-73.379 400.1,-73.379 58.05,0 131.29,44.218 80.16,107.808 -37.74,46.922 -113.38,217.071 156.15,217.071 101.5,0 153.99,-24.149 178.05,-56.75 -29.06,21.839 -77.93,36.519 -156.18,36.75 -0.01,0 -0.03,0 -0.04,0 -0.11,0 -0.26,0 -0.38,0 -0.04,0 -0.08,0 -0.12,0 -0.12,0 -0.21,0 -0.32,0 -0.04,0 -0.09,0 -0.13,0 -0.11,0 -0.22,0 -0.34,0 -0.03,0 -0.07,0 -0.1,0 -0.15,0 -0.29,0 -0.44,0 -154.11,0 -195.38,-55.622 -195.4,-112.04 -0.02,-42.25 23.09,-84.941 39.25,-105.031 12.13,-15.09 17.26,-29.09 17.25,-41.66 -0.03,-40.43 -53.14,-66.148 -97.41,-66.148"
         id="path3709"
         inkscape:connector-curvature="0" />
    </clipPath>
    <clipPath
       clipPathUnits="userSpaceOnUse"
       id="clipPath3725">
      <path
         d="m 2240.91,1351.35 c -96.02,0 -160.72,21.16 -192.82,62.96 35.86,-28.49 93.64,-42.96 172.82,-42.96 109.65,0 178.44,27.6 204.51,82.01 27.93,58.33 -4.31,132.19 -32.79,167.6 -18.52,23.01 -12.29,36.03 -10.24,40.3 9.24,19.28 42.8,34.96 74.83,34.96 139.96,0 273.84,-24.9 398.3,-74.01 -1.43,-3.6 -2.76,-7.22 -4.13,-10.84 -117.57,43.04 -243.22,64.85 -374.17,64.85 -32.03,0 -65.59,-15.68 -74.83,-34.96 -2.05,-4.27 -8.28,-17.29 10.24,-40.3 28.48,-35.41 60.72,-109.27 32.79,-167.6 -26.07,-54.41 -94.86,-82.01 -204.51,-82.01"
         id="path3727"
         inkscape:connector-curvature="0" />
    </clipPath>
    <linearGradient
       x1="0"
       y1="0"
       x2="1"
       y2="0"
       gradientUnits="userSpaceOnUse"
       gradientTransform="matrix(836.231,-1456.36,-1456.36,-836.231,1813.44,1689.6)"
       spreadMethod="pad"
       id="linearGradient3729">
      <stop
         style="stop-opacity:1;stop-color:#ffa180"
         offset="0"
         id="stop3731" />
      <stop
         style="stop-opacity:1;stop-color:#ffa180"
         offset="0.29044801"
         id="stop3733" />
      <stop
         style="stop-opacity:1;stop-color:#e38083"
         offset="1"
         id="stop3735" />
    </linearGradient>
    <clipPath
       clipPathUnits="userSpaceOnUse"
       id="clipPath3743">
      <path
         d="m 2884.76,1071.45 c -22.89,0 -43.75,11.78 -59.65,33.32 11.98,-8.63 25.4,-13.32 39.65,-13.32 18.06,0 36.27,7.28 54.16,21.66 14.98,12.05 53.56,34.84 92.44,34.84 27.52,0 47.09,-12.57 60.97,-32.28 -11.23,7.69 -24.64,12.28 -40.97,12.28 -38.88,0 -77.46,-22.79 -92.44,-34.84 -17.89,-14.37 -36.1,-21.66 -54.16,-21.66"
         id="path3745"
         inkscape:connector-curvature="0" />
    </clipPath>
    <clipPath
       clipPathUnits="userSpaceOnUse"
       id="clipPath3761">
      <path
         d="m 2402.35,263.922 c -9.25,5.648 -16.4,12.508 -19.96,19.91 -2.05,4.277 -8.28,17.309 10.24,40.34 28.48,35.398 60.72,109.269 32.79,167.59 -3.24,6.769 -7.15,13.117 -11.71,19.047 13.8,-10.957 24.46,-23.93 31.71,-39.047 27.93,-58.321 -4.31,-132.184 -32.79,-167.59 -18.42,-22.902 -12.37,-35.902 -10.28,-40.25"
         id="path3763"
         inkscape:connector-curvature="0" />
    </clipPath>
    <clipPath
       clipPathUnits="userSpaceOnUse"
       id="clipPath3779">
      <path
         d="m 1389.48,809.43 c -41.12,28.129 -51.12,100.261 -51.12,163.109 0,80.021 15.98,175.401 92.09,175.401 38.87,0 77.47,-22.78 92.45,-34.83 17.88,-14.38 36.1,-21.67 54.16,-21.67 51.55,0.01 86.18,60.71 86.18,117.41 0,145.16 -25.88,284.12 -76.95,413.37 124.46,49.11 258.35,74 398.31,74 32.01,0 65.58,-15.68 74.8,-34.95 l 0.04,-0.08 c -14.84,9.07 -35.12,15.03 -54.84,15.03 -139.96,0 -273.85,-24.89 -398.31,-74 51.07,-129.25 76.95,-268.21 76.95,-413.37 0,-56.7 -34.63,-117.4 -86.18,-117.41 -18.06,0 -36.28,7.3 -54.16,21.67 -14.98,12.05 -53.58,34.83 -92.45,34.83 -76.11,0 -92.09,-95.38 -92.09,-175.401 0,-51.09 6.6,-108.32 31.12,-143.109"
         id="path3781"
         inkscape:connector-curvature="0" />
    </clipPath>
    <clipPath
       clipPathUnits="userSpaceOnUse"
       id="clipPath3797">
      <path
         d="m 1610.42,313.738 c -8.08,2.953 -16.12,6.012 -24.13,9.172 51.07,129.238 76.95,268.192 76.95,413.328 0,30.172 -9.88,61.391 -26.83,84.09 29.01,-20.957 46.83,-63.488 46.83,-104.09 0,-141.109 -24.53,-276.328 -72.82,-402.5"
         id="path3799"
         inkscape:connector-curvature="0" />
    </clipPath>
    <clipPath
       clipPathUnits="userSpaceOnUse"
       id="clipPath3873">
      <path
         d="m 2230.91,1378.86 c -0.12,0 -0.23,0 -0.35,0 0.11,0 0.23,0 0.35,0 154.1,0 195.36,55.62 195.39,112.04 -0.03,-56.42 -41.29,-112.04 -195.39,-112.04 m -0.47,0 c -0.08,0 -0.16,0 -0.24,0 0.07,0 0.17,0 0.24,0 m -0.38,0 c -0.09,0 -0.17,0 -0.27,0 0.1,0 0.17,0 0.27,0 m -0.34,0 c -0.12,0 -0.23,0 -0.34,0 0.12,0 0.22,0 0.34,0 m -0.47,0 c -0.08,0 -0.16,0 -0.24,0 0.08,0 0.15,0 0.24,0 m -0.36,0 c -0.09,0 -0.19,0 -0.27,0 0.09,0 0.17,0 0.27,0 m -0.36,0 c -0.11,0 -0.22,0 -0.33,0 0.12,0 0.22,0 0.33,0 m -0.47,0 c -0.07,0 -0.14,0 -0.2,0.01 0.06,-0.01 0.13,-0.01 0.2,-0.01 m -0.37,0.01 c -0.06,0 -0.13,0 -0.19,0 0.05,0 0.14,0 0.19,0 m -0.35,0 c -0.1,0 -0.2,0 -0.3,0 0.1,0 0.21,0 0.3,0 m -0.48,0 c -0.06,0 -0.11,0 -0.17,0 0.05,0 0.12,0 0.17,0 m -0.35,0 c -0.06,0 -0.11,0 -0.16,0 0.05,0 0.11,0 0.16,0 m -0.34,0.01 c -0.02,0 -0.02,0 -0.03,0 l 0.03,0 m -0.52,0 c -0.04,0 -0.07,0 -0.11,0 0.05,0 0.06,0 0.11,0 m -0.34,0 c -0.03,0 -0.05,0 -0.07,0 0.03,0 0.04,0 0.07,0"
         id="path3875"
         inkscape:connector-curvature="0" />
    </clipPath>
    <linearGradient
       x1="0"
       y1="0"
       x2="1"
       y2="0"
       gradientUnits="userSpaceOnUse"
       gradientTransform="matrix(836.231,-1456.36,-1456.36,-836.231,1813.44,1689.6)"
       spreadMethod="pad"
       id="linearGradient3877">
      <stop
         style="stop-opacity:1;stop-color:#7f2100"
         offset="0"
         id="stop3879" />
      <stop
         style="stop-opacity:1;stop-color:#7f2100"
         offset="0.29044801"
         id="stop3881" />
      <stop
         style="stop-opacity:1;stop-color:#630003"
         offset="1"
         id="stop3883" />
    </linearGradient>
    <clipPath
       clipPathUnits="userSpaceOnUse"
       id="clipPath3967">
      <path
         d="m 1571.12,1621.11 0,0 c 182.08,75.73 344.82,82.63 423.48,82.63 0.08,0 0.17,-0.01 0.25,-0.01 -0.08,0 -0.17,0.01 -0.25,0.01 -78.66,0 -241.4,-6.9 -423.48,-82.63 m 493.24,61.79 c -18.94,13.04 -44.79,20.54 -68.35,20.83 23.54,-0.29 49.38,-7.76 68.31,-20.78 0.01,-0.01 0.02,-0.03 0.04,-0.05 m -68.36,20.83 c -0.09,0 -0.18,0 -0.27,0 0.1,0 0.18,0 0.27,0 m -0.29,0 c -0.17,0 -0.35,0 -0.53,0 0.18,0 0.36,0 0.53,0 m -0.56,0 c -0.08,0 -0.17,0 -0.25,0 0.08,0 0.17,0 0.25,0"
         id="path3969"
         inkscape:connector-curvature="0" />
    </clipPath>
    <clipPath
       clipPathUnits="userSpaceOnUse"
       id="clipPath3985">
      <path
         d="m 1570.22,1620.74 0,0 c -3.37,8.1 -6.46,16.11 -9.57,24.13 178.19,72.05 336.67,78.87 413.95,78.87 34.11,0 73.44,-15.29 89.72,-40.79 -18.93,13.02 -44.77,20.49 -68.31,20.78 0,0 0,0 -0.01,0 -0.09,0 -0.17,0 -0.27,0 0,0 -0.01,0 -0.02,0 -0.17,0 -0.35,0 -0.53,0 -0.01,0 -0.02,0 -0.03,0 -0.08,0 -0.17,0 -0.25,0 -0.02,0 -0.03,0 -0.05,0 -0.08,0 -0.17,0.01 -0.25,0.01 -78.66,0 -241.4,-6.9 -423.48,-82.63 -0.3,-0.12 -0.6,-0.25 -0.9,-0.37"
         id="path3987"
         inkscape:connector-curvature="0" />
    </clipPath>
    <linearGradient
       x1="0"
       y1="0"
       x2="1"
       y2="0"
       gradientUnits="userSpaceOnUse"
       gradientTransform="matrix(1175,-1360,-1360,-1175,2192.93,2325.32)"
       spreadMethod="pad"
       id="linearGradient3989">
      <stop
         style="stop-opacity:1;stop-color:#7e7710"
         offset="0"
         id="stop3991" />
      <stop
         style="stop-opacity:1;stop-color:#7e7710"
         offset="0.2989098"
         id="stop3993" />
      <stop
         style="stop-opacity:1;stop-color:#760e12"
         offset="1"
         id="stop3995" />
    </linearGradient>
    <clipPath
       clipPathUnits="userSpaceOnUse"
       id="clipPath4155">
      <path
         d="m 1557.82,1618.96 c -0.02,0.05 -0.03,0.09 -0.05,0.13 3.2,1.3 6.36,2.47 9.56,3.78 l 0,0 c -3.17,-1.32 -6.35,-2.63 -9.51,-3.91"
         id="path4157"
         inkscape:connector-curvature="0" />
    </clipPath>
    <linearGradient
       x1="0"
       y1="0"
       x2="1"
       y2="0"
       gradientUnits="userSpaceOnUse"
       gradientTransform="matrix(836.231,-1456.36,-1456.36,-836.231,490.083,3008.45)"
       spreadMethod="pad"
       id="linearGradient4159">
      <stop
         style="stop-opacity:1;stop-color:#283410"
         offset="0"
         id="stop4161" />
      <stop
         style="stop-opacity:1;stop-color:#283410"
         offset="0.29044801"
         id="stop4163" />
      <stop
         style="stop-opacity:1;stop-color:#121b00"
         offset="1"
         id="stop4165" />
    </linearGradient>
    <linearGradient
       inkscape:collect="always"
       xlink:href="#linearGradient3631"
       id="linearGradient4804"
       gradientUnits="userSpaceOnUse"
       gradientTransform="matrix(836.231,-1456.36,-1456.36,-836.231,1813.44,1689.6)"
       spreadMethod="pad"
       x1="0"
       y1="0"
       x2="1"
       y2="0" />
    <linearGradient
       inkscape:collect="always"
       xlink:href="#linearGradient3631"
       id="linearGradient4806"
       gradientUnits="userSpaceOnUse"
       gradientTransform="matrix(836.231,-1456.36,-1456.36,-836.231,1813.44,1689.6)"
       spreadMethod="pad"
       x1="0"
       y1="0"
       x2="1"
       y2="0" />
    <linearGradient
       inkscape:collect="always"
       xlink:href="#linearGradient3631"
       id="linearGradient4808"
       gradientUnits="userSpaceOnUse"
       gradientTransform="matrix(836.231,-1456.36,-1456.36,-836.231,1813.44,1689.6)"
       spreadMethod="pad"
       x1="0"
       y1="0"
       x2="1"
       y2="0" />
    <linearGradient
       inkscape:collect="always"
       xlink:href="#linearGradient3631"
       id="linearGradient4810"
       gradientUnits="userSpaceOnUse"
       gradientTransform="matrix(836.231,-1456.36,-1456.36,-836.231,1813.44,1689.6)"
       spreadMethod="pad"
       x1="0"
       y1="0"
       x2="1"
       y2="0" />
    <linearGradient
       inkscape:collect="always"
       xlink:href="#linearGradient3631"
       id="linearGradient4812"
       gradientUnits="userSpaceOnUse"
       gradientTransform="matrix(836.231,-1456.36,-1456.36,-836.231,1813.44,1689.6)"
       spreadMethod="pad"
       x1="0"
       y1="0"
       x2="1"
       y2="0" />
    <linearGradient
       inkscape:collect="always"
       xlink:href="#linearGradient3729"
       id="linearGradient4814"
       gradientUnits="userSpaceOnUse"
       gradientTransform="matrix(836.231,-1456.36,-1456.36,-836.231,1813.44,1689.6)"
       spreadMethod="pad"
       x1="0"
       y1="0"
       x2="1"
       y2="0" />
    <linearGradient
       inkscape:collect="always"
       xlink:href="#linearGradient3729"
       id="linearGradient4816"
       gradientUnits="userSpaceOnUse"
       gradientTransform="matrix(836.231,-1456.36,-1456.36,-836.231,1813.44,1689.6)"
       spreadMethod="pad"
       x1="0"
       y1="0"
       x2="1"
       y2="0" />
    <linearGradient
       inkscape:collect="always"
       xlink:href="#linearGradient3729"
       id="linearGradient4818"
       gradientUnits="userSpaceOnUse"
       gradientTransform="matrix(836.231,-1456.36,-1456.36,-836.231,1813.44,1689.6)"
       spreadMethod="pad"
       x1="0"
       y1="0"
       x2="1"
       y2="0" />
    <linearGradient
       inkscape:collect="always"
       xlink:href="#linearGradient3729"
       id="linearGradient4820"
       gradientUnits="userSpaceOnUse"
       gradientTransform="matrix(836.231,-1456.36,-1456.36,-836.231,1813.44,1689.6)"
       spreadMethod="pad"
       x1="0"
       y1="0"
       x2="1"
       y2="0" />
    <linearGradient
       inkscape:collect="always"
       xlink:href="#linearGradient3729"
       id="linearGradient4822"
       gradientUnits="userSpaceOnUse"
       gradientTransform="matrix(836.231,-1456.36,-1456.36,-836.231,1813.44,1689.6)"
       spreadMethod="pad"
       x1="0"
       y1="0"
       x2="1"
       y2="0" />
    <linearGradient
       inkscape:collect="always"
       xlink:href="#linearGradient3877"
       id="linearGradient4824"
       gradientUnits="userSpaceOnUse"
       gradientTransform="matrix(836.231,-1456.36,-1456.36,-836.231,1813.44,1689.6)"
       spreadMethod="pad"
       x1="0"
       y1="0"
       x2="1"
       y2="0" />
    <linearGradient
       inkscape:collect="always"
       xlink:href="#linearGradient3877"
       id="linearGradient4826"
       gradientUnits="userSpaceOnUse"
       gradientTransform="matrix(836.231,-1456.36,-1456.36,-836.231,1813.44,1689.6)"
       spreadMethod="pad"
       x1="0"
       y1="0"
       x2="1"
       y2="0" />
  </defs>
  <sodipodi:namedview
     pagecolor="#ffffff"
     bordercolor="#666666"
     borderopacity="1"
     objecttolerance="10"
     gridtolerance="10"
     guidetolerance="10"
     inkscape:pageopacity="0"
     inkscape:pageshadow="2"
     inkscape:window-width="1920"
     inkscape:window-height="1056"
     id="namedview6182"
     showgrid="false"
     inkscape:zoom="0.90509668"
     inkscape:cx="-73.848333"
     inkscape:cy="-70.777512"
     inkscape:window-x="0"
     inkscape:window-y="24"
     inkscape:window-maximized="1"
     inkscape:current-layer="svg6180" />
  <g
     transform="matrix(0.13642141,0,0,-0.13642141,-169.66533,258.75823)"
     id="g4337">
    <g
       id="g3603">
      <g
         clip-path="url(#clipPath3607)"
         id="g3605">
        <path
           inkscape:connector-curvature="0"
           id="path3619"
           style="fill:url(#linearGradient3611);fill-opacity:1;fill-rule:nonzero;stroke:none"
           d="m 2467.22,218.891 c -0.06,0 -0.13,0 -0.19,0 0.06,0 0.12,0 0.19,0 m -0.25,0 c -0.05,0 -0.08,0 -0.13,0 0.04,0 0.09,0 0.13,0 m -0.2,0 c -0.04,0 -0.08,0 -0.12,0 0.04,0 0.08,0 0.12,0 m -0.19,0 c -0.04,0 -0.08,0 -0.12,0 0.04,0 0.08,0 0.12,0 m -0.19,0 c -0.05,0.007 -0.09,0.007 -0.14,0.007 0.05,0 0.1,0 0.14,-0.007 m -0.18,0.007 c -0.07,0 -0.13,0 -0.19,0 0.06,0 0.12,0 0.19,0 m -0.22,0 c -0.05,0 -0.11,0 -0.16,0 0.05,0 0.11,0 0.16,0 m -0.21,0 c -0.05,0 -0.1,0 -0.14,0 0.04,0 0.09,0 0.14,0 m -0.2,0 c -0.05,0 -0.1,0 -0.14,0.012 0.05,-0.012 0.09,-0.012 0.14,-0.012 m -0.19,0.012 c -0.05,0 -0.1,0 -0.16,0 0.06,0 0.11,0 0.16,0 m -0.19,0 c -0.19,0 -0.39,0.012 -0.59,0.012 0.2,0 0.39,-0.012 0.59,-0.012 m -0.61,0.012 c -0.06,0 -0.11,0 -0.17,0.008 0.06,-0.008 0.11,-0.008 0.17,-0.008 m -0.2,0.008 c -0.06,0 -0.12,0 -0.17,0 0.05,0 0.11,0 0.17,0 m -0.2,0 c -0.06,0 -0.12,0 -0.18,0.011 0.07,-0.011 0.12,-0.011 0.18,-0.011 m -0.19,0.011 c -0.27,0 -0.54,0.008 -0.81,0.02 0.27,-0.012 0.54,-0.02 0.81,-0.02 m -0.81,0.02 c -57.34,1.969 -126.11,45.609 -76.15,107.738 26.63,33.11 72.13,127.582 1.92,180.321 -24.06,32.601 -76.55,56.75 -178.05,56.75 -269.53,0 -193.89,-170.149 -156.15,-217.071 51.13,-63.59 -22.11,-107.808 -80.16,-107.808 -75.27,0 -227.58,6.461 -400.1,73.379 72.08,178.242 78.74,336.691 78.74,413.968 0,34.16 -15.33,73.602 -40.89,89.84 -11.31,16.383 -26.77,27.57 -45.32,27.57 -12.56,0 -26.53,-5.117 -41.6,-17.238 -20.07,-16.16 -62.7,-39.219 -104.92,-39.219 -19.12,0 -38.16,4.731 -54.98,16.989 20.73,-27.301 47.83,-36.918 75.1,-36.918 1.51,0 3.02,0.027 4.52,0.09 -1.99,-0.114 -3.99,-0.18 -5.99,-0.192 -55.98,0.629 -110.8,42.422 -110.8,195.379 0,153.281 55.02,194.931 111.12,195.401 41.89,-0.38 84,-23.23 103.91,-39.24 15.08,-12.13 29.07,-17.26 41.64,-17.26 0.33,0 0.67,0.01 1.01,0.01 0.34,-0.01 0.68,-0.01 1.02,-0.01 40.43,0 66.18,53.13 66.18,97.41 0,78.49 -6.86,240.67 -82.12,422.26 182.08,75.73 344.82,82.63 423.48,82.63 0.08,0 0.17,-0.01 0.25,-0.01 0.01,0 0.04,0 0.05,0 0.08,0 0.17,0 0.25,0 0.01,0 0.02,0 0.03,0 0.18,0 0.36,0 0.53,0 0.01,0 0.02,0 0.02,0 0.09,0 0.18,0 0.27,0 l 0.01,0 c 23.56,-0.29 49.41,-7.79 68.35,-20.83 -0.02,0.02 -0.03,0.04 -0.04,0.05 0.83,-0.56 1.64,-1.14 2.44,-1.73 8.88,-17.22 7.46,-38.6 -12,-62.8 -26.08,-32.43 -70.09,-123.63 -5.96,-176.93 21.58,-34.91 72.72,-61.67 176.44,-62.61 0.02,0 0.04,0 0.07,0 0.06,0 0.17,0 0.23,0 0.04,0 0.07,0 0.11,0 0.16,0 0.33,0 0.49,0 0.01,0 0.01,0 0.03,0 0.06,-0.01 0.11,-0.01 0.18,-0.01 0.05,0 0.1,0 0.16,0 0.06,0 0.11,0 0.18,0 0.06,0 0.11,0 0.17,0 0.06,0 0.11,0 0.18,0 0.1,0 0.2,0 0.3,0 0.07,0 0.1,0 0.16,0 0.06,0 0.13,0 0.19,0 0.06,0 0.1,0 0.17,0 0.06,-0.01 0.13,-0.01 0.2,-0.01 0.05,0 0.09,0 0.14,0 0.11,0 0.22,0 0.33,0 0.02,0 0.07,0 0.09,0 0.08,0 0.18,0 0.27,0 0.03,0 0.09,0 0.12,0 0.08,0 0.16,0 0.24,0 0.05,0 0.08,0 0.13,0 0.11,0 0.22,0 0.34,0 0.01,0 0.06,0 0.07,0 0.1,0 0.18,0 0.27,0 0.05,0 0.09,0 0.14,0 0.08,0 0.16,0 0.24,0 0.05,0 0.07,0 0.12,0 0.12,0 0.23,0 0.35,0 154.1,0 195.36,55.62 195.39,112.04 0,0.58 0,1.17 -0.01,1.75 0.28,42.49 -22.99,85.56 -39.25,105.77 -11.72,14.58 -16.91,28.13 -17.23,40.37 1.07,39.72 53.58,64.95 97.41,64.95 75.16,0 227.12,-6.3 399.39,-72.98 -71.28,-177.36 -78.05,-334.92 -78.05,-411.89 0,-34.11 15.3,-73.45 40.79,-89.73 11.31,-16.46 26.8,-27.7 45.41,-27.7 12.56,0 26.55,5.13 41.62,17.26 20.08,16.16 62.73,39.26 104.97,39.26 54.97,0 109.22,-39.14 111.99,-183.659 -1.81,94.259 -25.53,143.649 -57.06,166.619 22.21,-29.23 37.17,-78.59 37.17,-158.361 0,-154.137 -55.67,-195.387 -112.1,-195.399 -42.24,0 -84.89,23.102 -104.97,39.25 -15.07,12.121 -29.07,17.262 -41.63,17.262 -40.44,0 -66.19,-53.133 -66.19,-97.422 0,-78.781 6.92,-241.91 83.01,-424.352 -182.46,-76.089 -345.58,-83.007 -424.35,-83.007 -23.95,0 -50.45,7.531 -69.78,20.828 15.63,-24.539 52.59,-39.617 85.75,-40.758 m -49.48,291.848 c 4.56,-5.93 8.47,-12.278 11.71,-19.047 27.93,-58.321 -4.31,-132.192 -32.79,-167.59 -18.52,-23.031 -12.29,-36.063 -10.24,-40.34 3.56,-7.402 10.71,-14.262 19.96,-19.91 -2.09,4.348 -8.14,17.348 10.28,40.25 28.48,35.406 60.72,109.269 32.79,167.59 -7.25,15.117 -17.91,28.09 -31.71,39.047 m -777.3,309.519 c 16.95,-22.699 26.83,-53.918 26.83,-84.09 0,-145.136 -25.88,-284.09 -76.95,-413.328 8.01,-3.16 16.05,-6.219 24.13,-9.172 48.29,126.172 72.82,261.391 72.82,402.5 0,40.602 -17.82,83.133 -46.83,104.09 m -205.96,327.612 c -76.11,0 -92.09,-95.38 -92.09,-175.401 0,-62.848 10,-134.98 51.12,-163.109 -24.52,34.789 -31.12,92.019 -31.12,143.109 0,80.021 15.98,175.401 92.09,175.401 38.87,0 77.47,-22.78 92.45,-34.83 17.88,-14.37 36.1,-21.67 54.16,-21.67 51.55,0.01 86.18,60.71 86.18,117.41 0,145.16 -25.88,284.12 -76.95,413.37 124.46,49.11 258.35,74 398.31,74 19.72,0 40,-5.96 54.84,-15.03 l 0,0 -0.04,0.08 c -9.22,19.27 -42.79,34.95 -74.8,34.95 -139.96,0 -273.85,-24.89 -398.31,-74 51.07,-129.25 76.95,-268.21 76.95,-413.37 0,-56.7 -34.63,-117.4 -86.18,-117.41 -18.06,0 -36.28,7.29 -54.16,21.67 -14.98,12.05 -53.58,34.83 -92.45,34.83 m 1394.66,-43.17 c 15.9,-21.54 36.76,-33.32 59.65,-33.32 18.06,0 36.27,7.29 54.16,21.66 14.98,12.05 53.56,34.84 92.44,34.84 16.33,0 29.74,-4.59 40.97,-12.28 l 0,0 c -13.88,19.71 -33.45,32.28 -60.97,32.28 -38.88,0 -77.46,-22.79 -92.44,-34.84 -17.89,-14.38 -36.1,-21.66 -54.16,-21.66 -14.25,0 -27.67,4.69 -39.65,13.32 m -777.02,309.54 c 32.1,-41.8 96.8,-62.96 192.82,-62.96 109.65,0 178.44,27.6 204.51,82.01 27.93,58.33 -4.31,132.19 -32.79,167.6 -18.52,23.01 -12.29,36.03 -10.24,40.3 9.24,19.28 42.8,34.96 74.83,34.96 130.95,0 256.6,-21.81 374.17,-64.85 1.37,3.62 2.7,7.24 4.13,10.84 -124.46,49.11 -258.34,74.01 -398.3,74.01 -32.03,0 -65.59,-15.68 -74.83,-34.96 -2.05,-4.27 -8.28,-17.29 10.24,-40.3 28.48,-35.41 60.72,-109.27 32.79,-167.6 -26.07,-54.41 -94.86,-82.01 -204.51,-82.01 -79.18,0 -136.96,14.47 -172.82,42.96 m -477.85,-1112.412 0,0 c 0.02,0.063 0.05,0.122 0.07,0.18 -0.02,-0.058 -0.05,-0.117 -0.07,-0.18 m 662.54,241.872 c -0.01,0 -0.02,0 -0.04,0 0.01,0 0.03,0 0.04,0 m -0.42,0 c -0.04,0 -0.07,0 -0.12,0 0.04,0 0.08,0 0.12,0 m -0.44,0 c -0.04,0 -0.09,0 -0.13,0 0.04,0 0.09,0 0.13,0 m -0.47,0 c -0.03,0 -0.07,0 -0.1,0 0.03,0 0.07,0 0.1,0 m 902,419.199 c 0,0.031 0,0.062 0,0.09 0,-0.028 0,-0.059 0,-0.09 m 0,0.48 c 0,0.02 0,0.031 0,0.051 0,-0.012 0,-0.039 0,-0.051 m 0,0.41 c 0,0.039 0,0.071 0,0.11 0,-0.047 0,-0.059 0,-0.11 m -0.01,0.493 c 0,0.019 0,0.039 0,0.058 0,-0.031 0,-0.019 0,-0.058 m 0,0.41 c 0,0.027 0,0.066 0,0.097 0,-0.031 0,-0.07 0,-0.097 m 0,0.476 c 0,0.032 0,0.063 0,0.09 0,-0.027 0,-0.058 0,-0.09 m 0,0.403 c 0,0.039 0,0.078 0,0.129 0,-0.032 0,-0.098 0,-0.129 m 0,0.488 c 0,0.043 0,0.07 0,0.109 0,-0.039 0,-0.066 0,-0.109 m -0.01,0.391 c 0,0.05 0,0.089 0,0.14 0,-0.051 0,-0.09 0,-0.14 m 0,0.5 c 0,0.031 0,0.062 0,0.101 0,-0.039 0,-0.07 0,-0.101 m 0,0.402 c 0,0.047 0,0.078 0,0.129 0,-0.051 0,-0.082 0,-0.129 m -0.01,0.476 c 0,0.051 0,0.09 0,0.141 0,-0.051 0,-0.09 0,-0.141 m 0,0.403 c 0,0.039 0,0.09 0,0.129 0,-0.051 0,-0.09 0,-0.129 m 0,0.48 c 0,0.051 0,0.098 -0.01,0.141 0.01,-0.051 0.01,-0.09 0.01,-0.141 m -0.01,0.379 c 0,0.07 0,0.11 0,0.168 0,-0.058 0,-0.098 0,-0.168 m 0,0.5 c 0,0.059 0,0.11 -0.01,0.18 0.01,-0.07 0.01,-0.121 0.01,-0.18 m -0.01,0.371 c 0,0.059 0,0.117 0,0.18 0,-0.063 0,-0.121 0,-0.18 m 0,0.5 c 0,0.059 -0.01,0.117 -0.01,0.18 0,-0.07 0.01,-0.121 0.01,-0.18 m -0.01,0.379 c 0,0.059 0,0.121 0,0.192 0,-0.063 0,-0.133 0,-0.192 m -0.01,0.488 c 0,0.071 0,0.141 0,0.211 0,-0.07 0,-0.148 0,-0.211 m 0,0.372 c 0,0.058 0,0.128 0,0.199 0,-0.071 0,-0.141 0,-0.199 m -0.01,0.5 c 0,0.07 0,0.152 0,0.218 0,-0.058 0,-0.16 0,-0.218 m 0,0.351 c -0.01,0.258 -0.01,0.52 -0.02,0.777 0.01,-0.25 0.01,-0.519 0.02,-0.777 m -0.02,0.82 c 0,0.278 -0.01,0.559 -0.01,0.829 0,-0.282 0.01,-0.54 0.01,-0.829 m -324.78,224.309 0,0 0,0 m 0,0.27 c 0,0.01 0,0.01 0,0.02 0,-0.01 0,-0.01 0,-0.02 m 0,0.28 c 0,0.01 0,0.01 0,0.02 0,-0.01 0,-0.01 0,-0.02 m 0,0.28 c 0,0.01 0,0.01 0,0.02 0,-0.01 0,-0.02 0,-0.02 m -733.89,399.75 0.01,0.01 -0.01,-0.01 m 14.19,24.34 c 0,0 0,0 0.01,0.01 -0.01,-0.01 -0.01,-0.01 -0.01,-0.01 m 0.06,0.16 c 0.01,0.01 0.01,0.02 0.01,0.04 0,-0.02 0,-0.03 -0.01,-0.04 m 0.05,0.13 c 0.01,0.05 0.03,0.09 0.04,0.13 -0.01,-0.04 -0.03,-0.08 -0.04,-0.13 m 0.05,0.17 c 1.89,5.46 2.84,10.72 2.96,15.76 0,-0.03 0,-0.06 0,-0.09 -0.13,-5.01 -1.08,-10.24 -2.96,-15.67" />
      </g>
    </g>
    <path
       inkscape:connector-curvature="0"
       id="path3621"
       style="fill:#3f3f3f;fill-opacity:1;fill-rule:nonzero;stroke:none"
       d="m 2035.51,1492.2 c -0.46,42.57 22.87,85.81 39.17,106.13 -16.04,-20 -38.87,-62.19 -39.13,-104.1 -0.02,-0.68 -0.03,-1.36 -0.04,-2.03 m 39.18,106.14 c 0.02,0.03 0.04,0.05 0.07,0.08 6.79,8.45 11.38,16.54 14.11,24.25 -2.73,-7.7 -7.32,-15.8 -14.11,-24.25 -0.03,-0.03 -0.05,-0.05 -0.07,-0.08 m 14.19,24.34 c 0.01,0.05 0.03,0.1 0.05,0.15 -0.02,-0.05 -0.04,-0.1 -0.05,-0.15 m 0.06,0.19 c 0.01,0.03 0.03,0.06 0.04,0.09 -0.01,-0.03 -0.02,-0.06 -0.04,-0.09 m 0.08,0.22 c 0,0.01 0.01,0.03 0.01,0.04 0,-0.02 0,-0.03 -0.01,-0.04" />
    <g
       id="g3623">
      <g
         clip-path="url(#clipPath3627)"
         id="g3625">
        <path
           inkscape:connector-curvature="0"
           id="path3639"
           style="fill:url(#linearGradient4804);fill-opacity:1;fill-rule:nonzero;stroke:none"
           d="m 2048.8,1441.49 c -64.13,53.3 -20.12,144.5 5.96,176.93 19.46,24.2 20.88,45.58 12,62.8 14.73,-10.86 24.74,-25.25 25.23,-42.33 -0.12,-5.04 -1.07,-10.3 -2.96,-15.76 0,-0.01 -0.01,-0.03 -0.01,-0.04 -0.01,-0.04 -0.03,-0.08 -0.04,-0.13 -0.01,-0.03 -0.03,-0.06 -0.04,-0.09 0,-0.02 0,-0.03 -0.01,-0.04 -0.02,-0.05 -0.04,-0.1 -0.05,-0.15 -0.01,-0.01 -0.01,-0.01 -0.01,-0.01 -2.73,-7.71 -7.32,-15.8 -14.11,-24.25 -0.03,-0.03 -0.05,-0.05 -0.07,-0.08 l -0.01,-0.01 c -16.3,-20.32 -39.63,-63.56 -39.17,-106.13 -0.18,-17.48 3.53,-34.93 13.29,-50.71" />
      </g>
    </g>
    <path
       inkscape:connector-curvature="0"
       id="path3641"
       style="fill:#3f3f3f;fill-opacity:1;fill-rule:nonzero;stroke:none"
       d="m 2467.03,218.891 c -0.02,0 -0.04,0 -0.06,0 0.02,0 0.04,0 0.06,0 m -0.19,0 c -0.02,0 -0.05,0 -0.07,0 0.03,0 0.05,0 0.07,0 m -0.19,0 c -0.02,0 -0.04,0 -0.07,0 0.03,0 0.05,0 0.07,0 m -0.19,0 c -0.02,0 -0.04,0 -0.07,0 0.02,0 0.05,0 0.07,0 m -0.21,0.007 c -0.01,0 -0.03,0 -0.04,0 0.01,0 0.03,0 0.04,0 m -0.23,0 c -0.01,0 -0.02,0 -0.03,0 0.01,0 0.02,0 0.03,0 m -0.19,0 c -0.02,0 -0.04,0 -0.05,0 0.01,0 0.03,0 0.05,0 m -0.19,0 c -0.02,0 -0.04,0 -0.06,0 0.02,0 0.04,0 0.06,0 m -0.2,0.012 c -0.02,0 -0.03,0 -0.05,0 0.02,0 0.03,0 0.05,0 m -0.21,0 c -0.01,0 -0.02,0 -0.03,0 0.01,0 0.02,0 0.03,0 m -0.62,0.012 c 0,0 -0.01,0 -0.02,0 0.01,0 0.02,0 0.02,0 m -0.19,0.008 c -0.01,0 -0.02,0 -0.03,0 0.01,0 0.02,0 0.03,0 m -0.2,0 c -0.01,0 -0.02,0 -0.03,0 0.01,0 0.02,0 0.03,0 m -0.21,0.011 -0.01,0 0.01,0 m -0.82,0.02 0,0 m 670.26,743.598 c 0,0.14 0,0.269 0,0.41 0,-0.141 0,-0.27 0,-0.41 m 0,0.5 c 0,0.132 0,0.261 0,0.39 0,-0.129 0,-0.258 0,-0.39 m 0,0.441 c 0,0.121 0,0.238 0,0.359 0,-0.121 0,-0.23 0,-0.359 m 0,0.469 c -0.01,0.121 -0.01,0.269 -0.01,0.383 0,-0.122 0,-0.25 0.01,-0.383 m -0.01,0.441 c 0,0.11 0,0.231 0,0.352 0,-0.121 0,-0.231 0,-0.352 m 0,0.449 c 0,0.11 0,0.27 0,0.379 0,-0.129 0,-0.25 0,-0.379 m 0,0.469 c 0,0.121 0,0.192 0,0.313 0,-0.102 0,-0.211 0,-0.313 m 0,0.442 c 0,0.128 0,0.23 0,0.359 0,-0.109 0,-0.238 0,-0.359 m 0,0.468 c 0,0.094 0,0.184 -0.01,0.282 0.01,-0.09 0.01,-0.188 0.01,-0.282 m -0.01,0.422 c 0,0.11 0,0.25 0,0.36 0,-0.122 0,-0.239 0,-0.36 m 0,0.461 c 0,0.09 0,0.207 0,0.301 0,-0.094 0,-0.211 0,-0.301 m 0,0.43 c 0,0.109 0,0.238 -0.01,0.347 0.01,-0.117 0.01,-0.238 0.01,-0.347 m -0.01,0.488 c 0,0.082 0,0.18 0,0.262 0,-0.09 0,-0.18 0,-0.262 m 0,0.391 c 0,0.109 0,0.242 0,0.351 0,-0.121 0,-0.23 0,-0.351 m -0.01,0.492 c 0,0.078 0,0.156 0,0.238 0,-0.07 0,-0.16 0,-0.238 m 0,0.406 c 0,0.102 0,0.231 0,0.332 0,-0.109 0,-0.219 0,-0.332 m -0.01,0.512 c 0,0.058 0,0.129 0,0.191 0,-0.07 0,-0.133 0,-0.191 m 0,0.371 c 0,0.098 0,0.219 0,0.32 0,-0.101 0,-0.222 0,-0.32 m -0.01,0.5 c 0,0.059 0,0.129 0,0.199 0,-0.07 0,-0.14 0,-0.199 m 0,0.391 c 0,0.109 0,0.187 -0.01,0.296 0.01,-0.097 0.01,-0.199 0.01,-0.296 m -0.01,0.507 c 0,0.051 0,0.11 0,0.161 0,-0.051 0,-0.11 0,-0.161 m 0,0.36 c -0.01,0.113 -0.01,0.191 -0.01,0.301 0,-0.11 0,-0.2 0.01,-0.301 m -0.01,0.519 c 0,0.051 0,0.082 0,0.133 0,-0.051 0,-0.082 0,-0.133 m -0.02,0.91 c 0,0.024 0,0.032 0,0.043 0,-0.011 0,-0.031 0,-0.043 m -0.01,0.872 0,0.031 c 0,-0.012 0,-0.012 0,-0.031" />
    <g
       id="g3643">
      <g
         clip-path="url(#clipPath3647)"
         id="g3645">
        <path
           inkscape:connector-curvature="0"
           id="path3659"
           style="fill:url(#linearGradient4806);fill-opacity:1;fill-rule:nonzero;stroke:none"
           d="m 2467.22,218.891 0,0 c -0.07,0 -0.13,0 -0.19,0 -0.02,0 -0.04,0 -0.06,0 -0.04,0 -0.09,0 -0.13,0 -0.02,0 -0.04,0 -0.07,0 -0.04,0 -0.08,0 -0.12,0 -0.02,0 -0.04,0 -0.07,0 -0.04,0 -0.08,0 -0.12,0 -0.02,0 -0.05,0 -0.07,0 -0.04,0.007 -0.09,0.007 -0.14,0.007 -0.01,0 -0.03,0 -0.04,0 -0.07,0 -0.13,0 -0.19,0 -0.01,0 -0.02,0 -0.03,0 -0.05,0 -0.11,0 -0.16,0 -0.02,0 -0.04,0 -0.05,0 -0.05,0 -0.1,0 -0.14,0 -0.02,0 -0.04,0 -0.06,0 -0.05,0 -0.09,0 -0.14,0.012 -0.02,0 -0.03,0 -0.05,0 -0.05,0 -0.1,0 -0.16,0 -0.01,0 -0.02,0 -0.03,0 -0.2,0 -0.39,0.012 -0.59,0.012 0,0 -0.01,0 -0.02,0 -0.06,0 -0.11,0 -0.17,0.008 -0.01,0 -0.02,0 -0.03,0 -0.06,0 -0.12,0 -0.17,0 -0.01,0 -0.02,0 -0.03,0 -0.06,0 -0.11,0 -0.18,0.011 l -0.01,0 c -0.27,0 -0.54,0.008 -0.81,0.02 l 0,0 c -33.16,1.141 -70.12,16.219 -85.75,40.758 19.33,-13.297 45.83,-20.828 69.78,-20.828 78.77,0 241.89,6.918 424.35,83.007 -76.09,182.442 -83.01,345.571 -83.01,424.352 0,44.289 25.75,97.422 66.19,97.422 12.56,0 26.56,-5.141 41.63,-17.262 20.08,-16.148 62.73,-39.25 104.97,-39.25 56.43,0.012 112.1,41.262 112.1,195.399 0,79.771 -14.96,129.131 -37.17,158.361 31.53,-22.97 55.25,-72.36 57.06,-166.619 l 0,-0.031 c 0,-0.27 0.01,-0.551 0.01,-0.829 0,-0.011 0,-0.019 0,-0.043 0.01,-0.257 0.01,-0.519 0.02,-0.777 0,-0.051 0,-0.082 0,-0.133 0,-0.066 0,-0.148 0,-0.218 0,-0.11 0,-0.188 0.01,-0.301 0,-0.071 0,-0.141 0,-0.199 0,-0.051 0,-0.11 0,-0.161 0,-0.07 0,-0.14 0,-0.211 0.01,-0.109 0.01,-0.187 0.01,-0.296 0,-0.071 0,-0.133 0,-0.192 0,-0.07 0,-0.14 0,-0.199 0,-0.063 0.01,-0.121 0.01,-0.18 0,-0.101 0,-0.222 0,-0.32 0,-0.063 0,-0.121 0,-0.18 0,-0.062 0,-0.133 0,-0.191 0.01,-0.07 0.01,-0.121 0.01,-0.18 0,-0.101 0,-0.23 0,-0.332 0,-0.058 0,-0.098 0,-0.168 0,-0.082 0,-0.16 0,-0.238 0.01,-0.043 0.01,-0.09 0.01,-0.141 0,-0.109 0,-0.242 0,-0.351 0,-0.039 0,-0.09 0,-0.129 0,-0.082 0,-0.18 0,-0.262 0,-0.051 0,-0.09 0,-0.141 0.01,-0.109 0.01,-0.238 0.01,-0.347 0,-0.051 0,-0.082 0,-0.129 0,-0.094 0,-0.211 0,-0.301 0,-0.039 0,-0.07 0,-0.101 0,-0.11 0,-0.25 0,-0.36 0,-0.051 0,-0.09 0,-0.14 0.01,-0.098 0.01,-0.188 0.01,-0.282 0,-0.039 0,-0.066 0,-0.109 0,-0.129 0,-0.231 0,-0.359 0,-0.051 0,-0.09 0,-0.129 0,-0.121 0,-0.192 0,-0.313 0,-0.027 0,-0.058 0,-0.09 0,-0.109 0,-0.269 0,-0.379 0,-0.031 0,-0.07 0,-0.097 0,-0.121 0,-0.242 0,-0.352 0,-0.019 0,-0.039 0,-0.058 0,-0.114 0,-0.262 0.01,-0.383 0,-0.039 0,-0.071 0,-0.11 0,-0.121 0,-0.238 0,-0.359 0,-0.02 0,-0.031 0,-0.051 0,-0.129 0,-0.258 0,-0.39 0,-0.028 0,-0.059 0,-0.09 0,-0.141 0,-0.27 0,-0.41 l 0,0 c 0,-154.161 -55.67,-195.399 -112.1,-195.399 -42.23,0 -84.89,23.102 -104.97,39.25 -15.08,12.129 -29.06,17.262 -41.63,17.262 -40.44,0 -66.19,-53.133 -66.19,-97.422 l 0,0 c 0,-78.781 6.92,-241.91 83.01,-424.352 -182.46,-76.089 -345.58,-83.007 -424.35,-83.007" />
      </g>
    </g>
    <path
       inkscape:connector-curvature="0"
       id="path3661"
       style="fill:#3f3f3f;fill-opacity:1;fill-rule:nonzero;stroke:none"
       d="m 2829.4,1129.11 c -0.01,0.01 -0.03,0.02 -0.05,0.03 -13.07,19.01 -20.55,44.99 -20.78,68.61 0.23,-23.65 7.74,-49.63 20.83,-68.64 m -20.83,68.64 c 0,0.09 0,0.18 0,0.27 0,-0.09 0,-0.18 0,-0.27 m 0,0.29 c 0,0.08 0,0.17 0,0.26 0,-0.09 0,-0.17 0,-0.26 m 0,0.28 c 0,0.09 0,0.17 0,0.26 0,-0.09 0,-0.17 0,-0.26 m 0,0.28 c -0.01,0.09 -0.01,0.18 -0.01,0.27 0,-0.09 0,-0.18 0.01,-0.27" />
    <g
       id="g3663">
      <g
         clip-path="url(#clipPath3667)"
         id="g3665">
        <path
           inkscape:connector-curvature="0"
           id="path3679"
           style="fill:url(#linearGradient4808);fill-opacity:1;fill-rule:nonzero;stroke:none"
           d="m 2829.35,1129.14 c -25.49,16.28 -40.79,55.62 -40.79,89.73 0,76.97 6.77,234.53 78.05,411.89 7.98,-3.09 16.02,-6.31 24.08,-9.66 -75.26,-181.58 -82.13,-343.77 -82.13,-422.23 l 0,0 c 0,-0.09 0,-0.18 0.01,-0.27 0,-0.01 0,-0.01 0,-0.02 0,-0.09 0,-0.17 0,-0.26 0,-0.01 0,-0.01 0,-0.02 0,-0.09 0,-0.18 0,-0.26 0,-0.01 0,-0.01 0,-0.02 0,-0.09 0,-0.18 0,-0.27 l 0,0 c 0.23,-23.62 7.71,-49.6 20.78,-68.61" />
      </g>
    </g>
    <path
       inkscape:connector-curvature="0"
       id="path3681"
       style="fill:#3f3f3f;fill-opacity:1;fill-rule:nonzero;stroke:none"
       d="m 1612.4,816 c -7.6,4.84 -16.11,7.641 -25.38,7.641 -0.15,0 -0.3,0 -0.45,0 -0.17,0 -0.33,0.007 -0.5,0.007 0.33,0.012 0.66,0.012 0.98,0.012 9.25,0 17.72,-2.769 25.3,-7.582 0.01,-0.027 0.03,-0.047 0.05,-0.078" />
    <g
       id="g3683">
      <g
         clip-path="url(#clipPath3687)"
         id="g3685">
        <path
           inkscape:connector-curvature="0"
           id="path3699"
           style="fill:url(#linearGradient4810);fill-opacity:1;fill-rule:nonzero;stroke:none"
           d="m 1440.63,767.262 c -27.27,0 -54.37,9.617 -75.1,36.918 16.82,-12.258 35.86,-16.989 54.98,-16.989 42.22,0 84.85,23.059 104.92,39.219 15.07,12.121 29.04,17.238 41.6,17.238 18.55,0 34.01,-11.187 45.32,-27.57 -7.58,4.813 -16.05,7.582 -25.3,7.582 -0.32,0 -0.65,0 -0.98,-0.012 -0.35,0.012 -0.69,0.012 -1.04,0.012 -12.57,0 -26.56,-5.121 -41.64,-17.25 -19.01,-15.301 -58.27,-36.82 -98.24,-39.058 -1.5,-0.063 -3.01,-0.09 -4.52,-0.09" />
      </g>
    </g>
    <path
       inkscape:connector-curvature="0"
       id="path3701"
       style="fill:#3f3f3f;fill-opacity:1;fill-rule:nonzero;stroke:none"
       d="m 1570.31,302.078 c 1.43,3.434 2.68,6.813 4.06,10.242 0.05,-0.019 0.09,-0.031 0.13,-0.05 -1.37,-3.391 -2.77,-6.79 -4.19,-10.192 m 465.2,129.652 c 0.02,56.418 41.29,112.04 195.4,112.04 0.15,0 0.29,0 0.44,0 -0.15,0 -0.3,0 -0.44,0 -154.11,0 -195.38,-55.622 -195.4,-112.04 m 353.76,74.879 c -29.01,22.02 -77.82,36.93 -156.49,37.161 78.25,-0.231 127.12,-14.911 156.18,-36.75 0.1,-0.141 0.21,-0.27 0.31,-0.411 m -156.53,37.161 c -0.13,0 -0.25,0 -0.38,0 0.12,0 0.27,0 0.38,0 m -0.5,0 c -0.11,0 -0.22,0 -0.32,0 0.11,0 0.2,0 0.32,0 m -0.45,0 c -0.11,0 -0.22,0 -0.34,0 0.12,0 0.23,0 0.34,0" />
    <g
       id="g3703">
      <g
         clip-path="url(#clipPath3707)"
         id="g3705">
        <path
           inkscape:connector-curvature="0"
           id="path3719"
           style="fill:url(#linearGradient4812);fill-opacity:1;fill-rule:nonzero;stroke:none"
           d="m 1994.6,218.891 c -78.78,0 -241.92,6.918 -424.36,83.007 0.02,0.063 0.05,0.122 0.07,0.18 1.42,3.402 2.82,6.801 4.19,10.192 172.52,-66.918 324.83,-73.379 400.1,-73.379 58.05,0 131.29,44.218 80.16,107.808 -37.74,46.922 -113.38,217.071 156.15,217.071 101.5,0 153.99,-24.149 178.05,-56.75 -29.06,21.839 -77.93,36.519 -156.18,36.75 -0.01,0 -0.03,0 -0.04,0 -0.11,0 -0.26,0 -0.38,0 -0.04,0 -0.08,0 -0.12,0 -0.12,0 -0.21,0 -0.32,0 -0.04,0 -0.09,0 -0.13,0 -0.11,0 -0.22,0 -0.34,0 -0.03,0 -0.07,0 -0.1,0 -0.15,0 -0.29,0 -0.44,0 -154.11,0 -195.38,-55.622 -195.4,-112.04 -0.02,-42.25 23.09,-84.941 39.25,-105.031 12.13,-15.09 17.26,-29.09 17.25,-41.66 -0.03,-40.43 -53.14,-66.148 -97.41,-66.148" />
      </g>
    </g>
    <g
       id="g3721">
      <g
         clip-path="url(#clipPath3725)"
         id="g3723">
        <path
           inkscape:connector-curvature="0"
           id="path3737"
           style="fill:url(#linearGradient4814);fill-opacity:1;fill-rule:nonzero;stroke:none"
           d="m 2240.91,1351.35 c -96.02,0 -160.72,21.16 -192.82,62.96 35.86,-28.49 93.64,-42.96 172.82,-42.96 109.65,0 178.44,27.6 204.51,82.01 27.93,58.33 -4.31,132.19 -32.79,167.6 -18.52,23.01 -12.29,36.03 -10.24,40.3 9.24,19.28 42.8,34.96 74.83,34.96 139.96,0 273.84,-24.9 398.3,-74.01 -1.43,-3.6 -2.76,-7.22 -4.13,-10.84 -117.57,43.04 -243.22,64.85 -374.17,64.85 -32.03,0 -65.59,-15.68 -74.83,-34.96 -2.05,-4.27 -8.28,-17.29 10.24,-40.3 28.48,-35.41 60.72,-109.27 32.79,-167.6 -26.07,-54.41 -94.86,-82.01 -204.51,-82.01" />
      </g>
    </g>
    <g
       id="g3739">
      <g
         clip-path="url(#clipPath3743)"
         id="g3741">
        <path
           inkscape:connector-curvature="0"
           id="path3755"
           style="fill:url(#linearGradient4816);fill-opacity:1;fill-rule:nonzero;stroke:none"
           d="m 2884.76,1071.45 c -22.89,0 -43.75,11.78 -59.65,33.32 11.98,-8.63 25.4,-13.32 39.65,-13.32 18.06,0 36.27,7.28 54.16,21.66 14.98,12.05 53.56,34.84 92.44,34.84 27.52,0 47.09,-12.57 60.97,-32.28 -11.23,7.69 -24.64,12.28 -40.97,12.28 -38.88,0 -77.46,-22.79 -92.44,-34.84 -17.89,-14.37 -36.1,-21.66 -54.16,-21.66" />
      </g>
    </g>
    <g
       id="g3757">
      <g
         clip-path="url(#clipPath3761)"
         id="g3759">
        <path
           inkscape:connector-curvature="0"
           id="path3773"
           style="fill:url(#linearGradient4818);fill-opacity:1;fill-rule:nonzero;stroke:none"
           d="m 2402.35,263.922 c -9.25,5.648 -16.4,12.508 -19.96,19.91 -2.05,4.277 -8.28,17.309 10.24,40.34 28.48,35.398 60.72,109.269 32.79,167.59 -3.24,6.769 -7.15,13.117 -11.71,19.047 13.8,-10.957 24.46,-23.93 31.71,-39.047 27.93,-58.321 -4.31,-132.184 -32.79,-167.59 -18.42,-22.902 -12.37,-35.902 -10.28,-40.25" />
      </g>
    </g>
    <g
       id="g3775">
      <g
         clip-path="url(#clipPath3779)"
         id="g3777">
        <path
           inkscape:connector-curvature="0"
           id="path3791"
           style="fill:url(#linearGradient4820);fill-opacity:1;fill-rule:nonzero;stroke:none"
           d="m 1389.48,809.43 c -41.12,28.129 -51.12,100.261 -51.12,163.109 0,80.021 15.98,175.401 92.09,175.401 38.87,0 77.47,-22.78 92.45,-34.83 17.88,-14.38 36.1,-21.67 54.16,-21.67 51.55,0.01 86.18,60.71 86.18,117.41 0,145.16 -25.88,284.12 -76.95,413.37 124.46,49.11 258.35,74 398.31,74 32.01,0 65.58,-15.68 74.8,-34.95 l 0.04,-0.08 c -14.84,9.07 -35.12,15.03 -54.84,15.03 -139.96,0 -273.85,-24.89 -398.31,-74 51.07,-129.25 76.95,-268.21 76.95,-413.37 0,-56.7 -34.63,-117.4 -86.18,-117.41 -18.06,0 -36.28,7.3 -54.16,21.67 -14.98,12.05 -53.58,34.83 -92.45,34.83 -76.11,0 -92.09,-95.38 -92.09,-175.401 0,-51.09 6.6,-108.32 31.12,-143.109" />
      </g>
    </g>
    <g
       id="g3793">
      <g
         clip-path="url(#clipPath3797)"
         id="g3795">
        <path
           inkscape:connector-curvature="0"
           id="path3809"
           style="fill:url(#linearGradient4822);fill-opacity:1;fill-rule:nonzero;stroke:none"
           d="m 1610.42,313.738 c -8.08,2.953 -16.12,6.012 -24.13,9.172 51.07,129.238 76.95,268.192 76.95,413.328 0,30.172 -9.88,61.391 -26.83,84.09 29.01,-20.957 46.83,-63.488 46.83,-104.09 0,-141.109 -24.53,-276.328 -72.82,-402.5" />
      </g>
    </g>
    <g
       id="g3869">
      <g
         clip-path="url(#clipPath3873)"
         id="g3871">
        <path
           inkscape:connector-curvature="0"
           id="path3885"
           style="fill:url(#linearGradient4824);fill-opacity:1;fill-rule:nonzero;stroke:none"
           d="m 2230.91,1378.86 c -0.12,0 -0.23,0 -0.35,0 0.11,0 0.23,0 0.35,0 154.1,0 195.36,55.62 195.39,112.04 -0.03,-56.42 -41.29,-112.04 -195.39,-112.04 m -0.47,0 c -0.08,0 -0.16,0 -0.24,0 0.07,0 0.17,0 0.24,0 m -0.38,0 c -0.09,0 -0.17,0 -0.27,0 0.1,0 0.17,0 0.27,0 m -0.34,0 c -0.12,0 -0.23,0 -0.34,0 0.12,0 0.22,0 0.34,0 m -0.47,0 c -0.08,0 -0.16,0 -0.24,0 0.08,0 0.15,0 0.24,0 m -0.36,0 c -0.09,0 -0.19,0 -0.27,0 0.09,0 0.17,0 0.27,0 m -0.36,0 c -0.11,0 -0.22,0 -0.33,0 0.12,0 0.22,0 0.33,0 m -0.47,0 c -0.07,0 -0.14,0 -0.2,0.01 0.06,-0.01 0.13,-0.01 0.2,-0.01 m -0.37,0.01 c -0.06,0 -0.13,0 -0.19,0 0.05,0 0.14,0 0.19,0 m -0.35,0 c -0.1,0 -0.2,0 -0.3,0 0.1,0 0.21,0 0.3,0 m -0.48,0 c -0.06,0 -0.11,0 -0.17,0 0.05,0 0.12,0 0.17,0 m -0.35,0 c -0.06,0 -0.11,0 -0.16,0 0.05,0 0.11,0 0.16,0 m -0.34,0.01 c -0.02,0 -0.02,0 -0.03,0 l 0.03,0 m -0.52,0 c -0.04,0 -0.07,0 -0.11,0 0.05,0 0.06,0 0.11,0 m -0.34,0 c -0.03,0 -0.05,0 -0.07,0 0.03,0 0.04,0 0.07,0" />
      </g>
    </g>
    <g
       id="g3963">
      <g
         clip-path="url(#clipPath3967)"
         id="g3965">
        <path
           inkscape:connector-curvature="0"
           id="path3979"
           style="fill:url(#linearGradient4826);fill-opacity:1;fill-rule:nonzero;stroke:none"
           d="m 1571.12,1621.11 0,0 c 182.08,75.73 344.82,82.63 423.48,82.63 0.08,0 0.17,-0.01 0.25,-0.01 -0.08,0 -0.17,0.01 -0.25,0.01 -78.66,0 -241.4,-6.9 -423.48,-82.63 m 493.24,61.79 c -18.94,13.04 -44.79,20.54 -68.35,20.83 23.54,-0.29 49.38,-7.76 68.31,-20.78 0.01,-0.01 0.02,-0.03 0.04,-0.05 m -68.36,20.83 c -0.09,0 -0.18,0 -0.27,0 0.1,0 0.18,0 0.27,0 m -0.29,0 c -0.17,0 -0.35,0 -0.53,0 0.18,0 0.36,0 0.53,0 m -0.56,0 c -0.08,0 -0.17,0 -0.25,0 0.08,0 0.17,0 0.25,0" />
      </g>
    </g>
    <g
       id="g3981">
      <g
         clip-path="url(#clipPath3985)"
         id="g3983">
        <path
           inkscape:connector-curvature="0"
           id="path3997"
           style="fill:url(#linearGradient3989);fill-opacity:1;fill-rule:nonzero;stroke:none"
           d="m 1570.22,1620.74 0,0 c -3.37,8.1 -6.46,16.11 -9.57,24.13 178.19,72.05 336.67,78.87 413.95,78.87 34.11,0 73.44,-15.29 89.72,-40.79 -18.93,13.02 -44.77,20.49 -68.31,20.78 0,0 0,0 -0.01,0 -0.09,0 -0.17,0 -0.27,0 0,0 -0.01,0 -0.02,0 -0.17,0 -0.35,0 -0.53,0 -0.01,0 -0.02,0 -0.03,0 -0.08,0 -0.17,0 -0.25,0 -0.02,0 -0.03,0 -0.05,0 -0.08,0 -0.17,0.01 -0.25,0.01 -78.66,0 -241.4,-6.9 -423.48,-82.63 -0.3,-0.12 -0.6,-0.25 -0.9,-0.37" />
      </g>
    </g>
    <path
       inkscape:connector-curvature="0"
       id="path4147"
       style="fill:#3c3c3c;fill-opacity:1;fill-rule:nonzero;stroke:none"
       d="m 1363.49,804.18 c -0.14,0.109 -0.28,0.211 -0.41,0.308 -21.75,28.942 -36.41,77.551 -36.75,155.25 0.35,-78.117 15.22,-126.66 37.16,-155.558 m -37.16,155.59 c 0,0.152 0,0.289 0,0.441 0,-0.152 0,-0.289 0,-0.441 m 0,0.46 c 0,0.129 0,0.29 0,0.418 0,-0.136 0,-0.277 0,-0.418 m 0,0.469 c 0,0.133 0,0.25 0,0.379 0,-0.129 0,-0.258 0,-0.379 m 0,0.473 c -0.01,0.109 -0.01,0.258 -0.01,0.367 0,-0.117 0,-0.25 0.01,-0.367 m -0.01,0.457 c 0,0.152 0,0.281 0,0.43 0,-0.137 0,-0.289 0,-0.43 m 0,0.461 c 0,0.148 0,0.32 0,0.461 0,-0.153 0,-0.313 0,-0.461" />
    <path
       inkscape:connector-curvature="0"
       id="path4149"
       style="fill:#3c3c3c;fill-opacity:1;fill-rule:nonzero;stroke:none"
       d="m 1567.33,1622.87 0,0 c 0.23,0.09 0.47,0.19 0.7,0.29 -0.23,-0.1 -0.47,-0.2 -0.7,-0.29" />
    <g
       id="g4151">
      <g
         clip-path="url(#clipPath4155)"
         id="g4153">
        <path
           inkscape:connector-curvature="0"
           id="path4167"
           style="fill:url(#linearGradient4159);fill-opacity:1;fill-rule:nonzero;stroke:none"
           d="m 1557.82,1618.96 c -0.02,0.05 -0.03,0.09 -0.05,0.13 3.2,1.3 6.36,2.47 9.56,3.78 l 0,0 c -3.17,-1.32 -6.35,-2.63 -9.51,-3.91" />
      </g>
    </g>
  </g>
</svg>
