<?xml version="1.0" encoding="UTF-8" standalone="no"?>
<svg
   xmlns:dc="http://purl.org/dc/elements/1.1/"
   xmlns:cc="http://creativecommons.org/ns#"
   xmlns:rdf="http://www.w3.org/1999/02/22-rdf-syntax-ns#"
   xmlns:svg="http://www.w3.org/2000/svg"
   xmlns="http://www.w3.org/2000/svg"
   xmlns:sodipodi="http://sodipodi.sourceforge.net/DTD/sodipodi-0.dtd"
   xmlns:inkscape="http://www.inkscape.org/namespaces/inkscape"
   version="1.1"
   width="64"
   height="64"
   color-interpolation="linearRGB"
   id="svg64545"
   inkscape:version="0.48.2 r9819"
   sodipodi:docname="folder.svg">
  <metadata
     id="metadata64587">
    <rdf:RDF>
      <cc:Work
         rdf:about="">
        <dc:format>image/svg+xml</dc:format>
        <dc:type
           rdf:resource="http://purl.org/dc/dcmitype/StillImage" />
        <dc:title></dc:title>
      </cc:Work>
    </rdf:RDF>
  </metadata>
  <defs
     id="defs64585">
    <linearGradient
       id="gradient0-1"
       gradientUnits="userSpaceOnUse"
       x1="35.389999"
       y1="14.68"
       x2="50.490002"
       y2="42.900002">
      <stop
         offset="0"
         stop-color="#c2772f"
         id="stop79228" />
      <stop
         offset="1"
         stop-color="#7f4c00"
         id="stop79230" />
    </linearGradient>
    <linearGradient
       id="gradient1-7"
       gradientUnits="userSpaceOnUse"
       x1="35.459999"
       y1="64.93"
       x2="27.91"
       y2="55.93">
      <stop
         offset="0"
         stop-color="#e6e276"
         id="stop79235" />
      <stop
         offset="1"
         stop-color="#e8bf71"
         id="stop79237" />
    </linearGradient>
    <radialGradient
       id="gradient2-4"
       gradientUnits="userSpaceOnUse"
       cx="0"
       cy="0"
       r="64"
       gradientTransform="matrix(0.6073,0.2281,-0.0814,0.2168,31.6668,28.5743)">
      <stop
         offset="0"
         stop-color="#ffb267"
         id="stop79242" />
      <stop
         offset="1"
         stop-color="#a35d01"
         id="stop79244" />
    </radialGradient>
    <linearGradient
       id="gradient3-0"
       gradientUnits="userSpaceOnUse"
       x1="33.549999"
       y1="5.0799999"
       x2="57.119999"
       y2="26.73">
      <stop
         offset="0"
         stop-color="#f0b840"
         id="stop79249" />
      <stop
         offset="1"
         stop-color="#b96d23"
         id="stop79251" />
    </linearGradient>
    <linearGradient
       id="gradient4"
       gradientUnits="userSpaceOnUse"
       x1="26"
       y1="-48"
       x2="62"
       y2="-48">
      <stop
         offset="0"
         stop-color="#7f4c00"
         id="stop79256" />
      <stop
         offset="1"
         stop-color="#e8bf71"
         id="stop79258" />
    </linearGradient>
    <linearGradient
       id="gradient5"
       gradientUnits="userSpaceOnUse"
       x1="26"
       y1="-48"
       x2="62"
       y2="-48">
      <stop
         offset="0"
         stop-color="#7f4c00"
         id="stop79263" />
      <stop
         offset="1"
         stop-color="#e8bf71"
         id="stop79265" />
    </linearGradient>
    <linearGradient
       id="gradient6"
       gradientUnits="userSpaceOnUse"
       x1="26"
       y1="-48"
       x2="62"
       y2="-48">
      <stop
         offset="0"
         stop-color="#7f4c00"
         id="stop79270" />
      <stop
         offset="1"
         stop-color="#e8bf71"
         id="stop79272" />
    </linearGradient>
  </defs>
  <sodipodi:namedview
     pagecolor="#ffffff"
     bordercolor="#666666"
     borderopacity="1"
     objecttolerance="10"
     gridtolerance="10"
     guidetolerance="10"
     inkscape:pageopacity="0"
     inkscape:pageshadow="2"
     inkscape:window-width="640"
     inkscape:window-height="480"
     id="namedview64583"
     showgrid="false"
     inkscape:zoom="0.5"
     inkscape:cx="32"
     inkscape:cy="32"
     inkscape:window-x="257"
     inkscape:window-y="342"
     inkscape:window-maximized="0"
     inkscape:current-layer="svg64545" />
  <g
     id="g64547">
    <path
       style="fill:#010101; fill-opacity:0.396"
       d="M42 61H48L52 57H56L62 51L48 47L42 61z"
       id="path64549" />
    <path
       style="fill:none; stroke:#000000; stroke-width:4"
       d="M3 15L13 41L42 59L60 12L48 10L44 12L26 8L24 13L16 11L15.91 19.2L3 15z"
       id="path64551" />
    <linearGradient
       id="gradient0"
       gradientUnits="userSpaceOnUse"
       x1="102.6"
       y1="8.5"
       x2="102.74"
       y2="47.07">
      <stop
         offset="0"
         stop-color="#face79"
         id="stop64554" />
      <stop
         offset="1"
         stop-color="#bc4105"
         id="stop64556" />
    </linearGradient>
    <path
       style="fill:url(#gradient0)"
       d="M26 8L14 41L42 58L60 12L48 10L44 12L26 8z"
       id="path64558" />
    <linearGradient
       id="gradient1"
       gradientUnits="userSpaceOnUse"
       x1="103.24"
       y1="12.68"
       x2="103.39"
       y2="55.34">
      <stop
         offset="0"
         stop-color="#ffffff"
         id="stop64561" />
      <stop
         offset="1"
         stop-color="#8e8e8e"
         id="stop64563" />
    </linearGradient>
    <path
       style="fill:url(#gradient1)"
       d="M16 11V41L42 57L49 22L16 11z"
       id="path64565" />
    <linearGradient
       id="gradient2"
       gradientUnits="userSpaceOnUse"
       x1="78.34"
       y1="-26.66"
       x2="101.46"
       y2="12.94">
      <stop
         offset="0"
         stop-color="#9a9a9a"
         id="stop64568" />
      <stop
         offset="1"
         stop-color="#505050"
         id="stop64570" />
    </linearGradient>
    <path
       style="fill:url(#gradient2)"
       d="M16 11L49 22L42 57L52 20.37L16 11z"
       id="path64572" />
    <linearGradient
       id="gradient3"
       gradientUnits="userSpaceOnUse"
       x1="88.52"
       y1="9.59"
       x2="97.54"
       y2="51.29">
      <stop
         offset="0"
         stop-color="#ffe2ac"
         id="stop64575" />
      <stop
         offset="1"
         stop-color="#f49806"
         id="stop64577" />
    </linearGradient>
    <path
       style="fill:url(#gradient3)"
       d="M3 15L13 41L42 59L38 30L3 15z"
       id="path64579" />
    <path
       style="fill:#a03d03"
       d="M3 15L38 30L42 59L40.5 28L3 15z"
       id="path64581" />
  </g>
  <g
     transform="matrix(0.71968212,0,0,0.71968212,12.124917,21.795677)"
     id="g79221">
    <path
       inkscape:connector-curvature="0"
       style="fill:#010000;fill-opacity:0.44309998"
       d="m 38,58 h 5 L 64,36 56,32 H 38 v 26 z"
       id="path79223" />
    <path
       inkscape:connector-curvature="0"
       style="fill:none;stroke:#010000;stroke-width:4"
       d="M 2,30 21,14 58,28 v 8 L 38,56 2,38 v -8 z"
       id="path79225" />
    <linearGradient
       id="linearGradient79320"
       gradientUnits="userSpaceOnUse"
       x1="35.389999"
       y1="14.68"
       x2="50.490002"
       y2="42.900002">
      <stop
         offset="0"
         stop-color="#c2772f"
         id="stop79322" />
      <stop
         offset="1"
         stop-color="#7f4c00"
         id="stop79324" />
    </linearGradient>
    <path
       inkscape:connector-curvature="0"
       style="fill:url(#gradient0-1)"
       d="M 38,56 2,38 v -8 l 36,16 v 10 z"
       id="path79232" />
    <linearGradient
       id="linearGradient79327"
       gradientUnits="userSpaceOnUse"
       x1="35.459999"
       y1="64.93"
       x2="27.91"
       y2="55.93">
      <stop
         offset="0"
         stop-color="#e6e276"
         id="stop79329" />
      <stop
         offset="1"
         stop-color="#e8bf71"
         id="stop79331" />
    </linearGradient>
    <path
       inkscape:connector-curvature="0"
       style="fill:url(#gradient1-7)"
       d="M 38,46 V 56 L 58,36 V 28 L 38,46 z"
       id="path79239" />
    <radialGradient
       id="radialGradient79334"
       gradientUnits="userSpaceOnUse"
       cx="0"
       cy="0"
       r="64"
       gradientTransform="matrix(0.6073,0.2281,-0.0814,0.2168,31.6668,28.5743)">
      <stop
         offset="0"
         stop-color="#ffb267"
         id="stop79336" />
      <stop
         offset="1"
         stop-color="#a35d01"
         id="stop79338" />
    </radialGradient>
    <path
       inkscape:connector-curvature="0"
       style="fill:url(#gradient2-4)"
       d="M 4.23,28.11 21,14 58,28 40,44 4.23,28.11 z"
       id="path79246" />
    <linearGradient
       id="linearGradient79341"
       gradientUnits="userSpaceOnUse"
       x1="33.549999"
       y1="5.0799999"
       x2="57.119999"
       y2="26.73">
      <stop
         offset="0"
         stop-color="#f0b840"
         id="stop79343" />
      <stop
         offset="1"
         stop-color="#b96d23"
         id="stop79345" />
    </linearGradient>
    <path
       inkscape:connector-curvature="0"
       style="fill:url(#gradient3-0)"
       d="M 2,30 4.23,28.11 40.37,43.86 38,46 2,30 z"
       id="path79253" />
    <linearGradient
       id="linearGradient79348"
       gradientUnits="userSpaceOnUse"
       x1="26"
       y1="-48"
       x2="62"
       y2="-48">
      <stop
         offset="0"
         stop-color="#7f4c00"
         id="stop79350" />
      <stop
         offset="1"
         stop-color="#e8bf71"
         id="stop79352" />
    </linearGradient>
    <path
       inkscape:connector-curvature="0"
       style="fill:url(#gradient4)"
       d="M 58,32 34,54 h 2"
       transform="matrix(0.8333,0,0,0.8363,9.6666,3.2363)"
       id="path79260" />
    <linearGradient
       id="linearGradient79355"
       gradientUnits="userSpaceOnUse"
       x1="26"
       y1="-48"
       x2="62"
       y2="-48">
      <stop
         offset="0"
         stop-color="#7f4c00"
         id="stop79357" />
      <stop
         offset="1"
         stop-color="#e8bf71"
         id="stop79359" />
    </linearGradient>
    <path
       inkscape:connector-curvature="0"
       style="fill:url(#gradient5)"
       d="M 58,32 34,54 h 2"
       transform="matrix(0.8333,0,0,0.8363,9.6666,5.9963)"
       id="path79267" />
    <linearGradient
       id="linearGradient79362"
       gradientUnits="userSpaceOnUse"
       x1="26"
       y1="-48"
       x2="62"
       y2="-48">
      <stop
         offset="0"
         stop-color="#7f4c00"
         id="stop79364" />
      <stop
         offset="1"
         stop-color="#e8bf71"
         id="stop79366" />
    </linearGradient>
    <path
       inkscape:connector-curvature="0"
       style="fill:url(#gradient6)"
       d="M 58,32 34,54 h 2"
       transform="matrix(0.8333,0,0,0.8363,9.6666,7.8363)"
       id="path79274" />
    <path
       inkscape:connector-curvature="0"
       style="fill:none;stroke:#3c2401;stroke-width:1"
       d="M 58,28 40,44 38.87,45.75 38.75,50.62 39,56 58.25,36.87"
       id="path79276" />
    <path
       inkscape:connector-curvature="0"
       style="fill:none;stroke:#3c2401;stroke-width:1"
       d="M 4,28 41,44 38.87,45.75 38.75,50.62 39,56 58.25,36.87"
       id="path79278" />
  </g>
</svg>
