<?xml version="1.0" encoding="UTF-8" standalone="no"?>
<svg
   xmlns:dc="http://purl.org/dc/elements/1.1/"
   xmlns:cc="http://creativecommons.org/ns#"
   xmlns:rdf="http://www.w3.org/1999/02/22-rdf-syntax-ns#"
   xmlns:svg="http://www.w3.org/2000/svg"
   xmlns="http://www.w3.org/2000/svg"
   xmlns:sodipodi="http://sodipodi.sourceforge.net/DTD/sodipodi-0.dtd"
   xmlns:inkscape="http://www.inkscape.org/namespaces/inkscape"
   version="1.1"
   width="44"
   height="44"
   color-interpolation="linearRGB"
   id="svg3466"
   inkscape:version="0.91 r13725"
   sodipodi:docname="media find artist r2.svg">
  <metadata
     id="metadata3485">
    <rdf:RDF>
      <cc:Work
         rdf:about="">
        <dc:format>image/svg+xml</dc:format>
        <dc:type
           rdf:resource="http://purl.org/dc/dcmitype/StillImage" />
      </cc:Work>
    </rdf:RDF>
  </metadata>
  <defs
     id="defs3483" />
  <sodipodi:namedview
     pagecolor="#ffffff"
     bordercolor="#666666"
     borderopacity="1"
     objecttolerance="10"
     gridtolerance="10"
     guidetolerance="10"
     inkscape:pageopacity="0"
     inkscape:pageshadow="2"
     inkscape:window-width="1920"
     inkscape:window-height="1056"
     id="namedview3481"
     showgrid="false"
     inkscape:zoom="9.9886364"
     inkscape:cx="22"
     inkscape:cy="22"
     inkscape:window-x="0"
     inkscape:window-y="24"
     inkscape:window-maximized="1"
     inkscape:current-layer="svg3466" />
  <g
     id="g3468"
     transform="matrix(0.82888321,0,0,0.82888321,4.2047782,3.6609132)">
    <path
       style="fill:none;stroke:#000000;stroke-width:4;stroke-linecap:round;stroke-linejoin:round;stroke-opacity:0.4"
       d="M 2,40 2,26 c 0,0 6,-4 10,-4 l -2,-2 4,-2 c 0,0 -2,-4 -2,-6 0,-2 2,-12 10,-10 8,2 7.83,-2.16 11,1 2,2 -1,3 -1,7 0,2 0,6 -2,8 0,4 -2,6 -2,6 0,0 8,6 10,6 2,2 2,10 2,10 L 2,40 Z"
       transform="translate(2,2)"
       id="path3470"
       inkscape:connector-curvature="0" />
    <path
       style="fill:none;stroke:#000000;stroke-width:4;stroke-linecap:round;stroke-linejoin:round"
       d="M 2,40 2,26 c 0,0 6,-4 10,-4 l -2,-2 4,-2 c 0,0 -2,-4 -2,-6 0,-2 2,-12 10,-10 8,2 7.83,-2.16 11,1 2,2 -1,3 -1,7 0,2 0,6 -2,8 0,4 -2,6 -2,6 0,0 8,6 10,6 2,2 2,10 2,10 L 2,40 Z"
       id="path3472"
       inkscape:connector-curvature="0" />
    <linearGradient
       id="gradient0"
       gradientUnits="userSpaceOnUse"
       x1="128"
       y1="1.99"
       x2="128"
       y2="40">
      <stop
         offset="0"
         stop-color="#808080"
         id="stop3475" />
      <stop
         offset="1"
         stop-color="#282828"
         id="stop3477" />
    </linearGradient>
    <path
       style="fill:url(#gradient0)"
       d="M 2,40 2,26 c 0,0 6,-4 10,-4 l -2,-2 4,-2 c 0,0 -2,-4 -2,-6 0,-2 2,-12 10,-10 8,2 7.83,-2.16 11,1 2,2 -1,3 -1,7 0,2 0,6 -2,8 0,4 -2,6 -2,6 0,0 8,6 10,6 2,2 2,10 2,10 L 2,40 Z"
       id="path3479"
       inkscape:connector-curvature="0" />
  </g>
</svg>
