<?xml version="1.0" encoding="UTF-8" standalone="no"?>
<!-- Created with Inkscape (http://www.inkscape.org/) -->

<svg
   xmlns:dc="http://purl.org/dc/elements/1.1/"
   xmlns:cc="http://creativecommons.org/ns#"
   xmlns:rdf="http://www.w3.org/1999/02/22-rdf-syntax-ns#"
   xmlns:svg="http://www.w3.org/2000/svg"
   xmlns="http://www.w3.org/2000/svg"
   xmlns:sodipodi="http://sodipodi.sourceforge.net/DTD/sodipodi-0.dtd"
   xmlns:inkscape="http://www.inkscape.org/namespaces/inkscape"
   id="svg2985"
   version="1.1"
   inkscape:version="0.48.2 r9819"
   width="72"
   height="72"
   sodipodi:docname="weight.svg">
  <metadata
     id="metadata2991">
    <rdf:RDF>
      <cc:Work
         rdf:about="">
        <dc:format>image/svg+xml</dc:format>
        <dc:type
           rdf:resource="http://purl.org/dc/dcmitype/StillImage" />
        <dc:title />
      </cc:Work>
    </rdf:RDF>
  </metadata>
  <defs
     id="defs2989" />
  <sodipodi:namedview
     pagecolor="#ffffff"
     bordercolor="#666666"
     borderopacity="1"
     objecttolerance="10"
     gridtolerance="10"
     guidetolerance="10"
     inkscape:pageopacity="0"
     inkscape:pageshadow="2"
     inkscape:window-width="1280"
     inkscape:window-height="975"
     id="namedview2987"
     showgrid="false"
     inkscape:zoom="2.8284272"
     inkscape:cx="-10.230939"
     inkscape:cy="-35.05123"
     inkscape:window-x="-4"
     inkscape:window-y="26"
     inkscape:window-maximized="1"
     inkscape:current-layer="svg2985" />
  <g
     id="g3806"
     transform="matrix(0.84677848,0,0,0.84677848,6.5761832,5.3126383)">
    <rect
       y="33"
       x="12.75"
       height="27.625"
       width="20.125"
       id="rect3804"
       style="fill:#f9f9f9;fill-opacity:1;fill-rule:nonzero;stroke:none" />
    <path
       style="fill:#cecece"
       d="M 17.544407,70.410708 C 9.401001,67.428942 6,61.904318 6,51.657845 6,44.054238 7.9821638,37.868096 12.039663,32.808638 c 2.668617,-3.327604 2.961958,-4.411574 2.976787,-11 C 15.036424,12.934651 17.380204,8.0849586 23.844627,3.5415915 27.77329,0.78042295 28.893969,0.5 36,0.5 c 7.106031,0 8.22671,0.28042295 12.155373,3.0415915 6.464423,4.5433671 8.808203,9.3930595 8.828177,18.2670465 0.01483,6.588426 0.30817,7.672396 2.976787,11 C 64.017836,37.868096 66,44.054238 66,51.657845 c 0,10.427896 -3.406586,15.810222 -11.904199,18.808354 -5.867686,2.07024 -30.849456,2.032314 -36.551394,-0.05549 z m 5.1705,-25.423281 c 2.042723,-3.280609 4.896382,-5.728556 8.247677,-7.075083 1.112679,-0.447067 0.823353,-1.006497 -1.209359,-2.338382 -7.724439,-5.061247 -19.062815,7.897882 -15.73429,17.983412 0.622093,1.884958 1.878722,3.8456 2.79251,4.356981 1.411224,0.789761 1.817341,0.148989 2.696696,-4.254858 0.569395,-2.851553 2.01244,-6.753984 3.206766,-8.67207 z M 47.364764,21 C 46.350974,15.386196 44.349384,12.393676 40.33375,10.488133 33.183713,7.0952186 26.205898,11.730986 24.511157,21 l -0.639938,3.5 12.062803,0 12.062804,0 -0.632062,-3.5 z"
       id="path3027"
       inkscape:connector-curvature="0" />
    <path
       style="fill:#afafaf"
       d="M 18.557825,70.552742 C 8.7788643,66.957858 5.705613,61.931962 6.2451813,50.417039 6.630627,42.191247 8.7856322,36.151682 12.995058,31.5 14.347767,30.005171 14.892694,27.460847 15.152455,21.426879 15.600767,11.013053 18.317888,6.4593329 26.46033,2.4756071 33.718332,-1.0754024 40.701163,-0.71154814 47.627888,3.5785847 54.437917,7.7964405 57,13.119482 57,23.050295 c 0,5.354979 0.393171,7.886601 1.277524,8.225959 0.702638,0.269628 2.615138,2.905273 4.25,5.856989 C 65.206438,41.969978 65.5,43.388842 65.5,51.5 c 0,7.828189 -0.303918,9.426102 -2.334215,12.272639 C 58.648254,70.106354 54.371506,71.433003 37.5,71.734176 26.328638,71.933596 21.493789,71.632044 18.557825,70.552742 z M 19.76576,53.380845 c 1.295638,-6.17699 4.840407,-11.562601 9.459175,-14.371442 l 2.993276,-1.82032 -2.568465,-1.682923 C 20.223716,29.329988 7.8374256,48.532951 15.666864,57.184383 16.570575,58.182972 17.597335,59 17.948553,59 18.29977,59 19.117514,56.47138 19.76576,53.380845 z M 47.978319,22.5 c -0.01223,-1.1 -0.876998,-3.882657 -1.921698,-6.183683 -4.351124,-9.5836563 -15.762118,-9.5836563 -20.113242,0 C 22.26252,24.423668 22.35633,24.5 36.000964,24.5 c 11.340345,0 11.998375,-0.109879 11.977355,-2 z"
       id="path3025"
       inkscape:connector-curvature="0" />
    <path
       style="fill:#8f8f8f"
       d="M 20.235594,71.073447 C 10.098696,68.506184 5.3660759,61.103998 6.2211147,49.15371 6.7194431,42.188916 10.833161,32.384989 13.722476,31.276254 14.598351,30.94015 15,28.482151 15,23.458111 c 0,-8.659906 1.018022,-11.789914 5.311334,-16.3302226 8.846354,-9.3552888 22.530978,-9.3552888 31.377332,0 C 55.977302,11.663251 57,14.798397 57,23.410112 c 0,6.132915 0.331879,7.580056 2.10641,9.1849 3.690603,3.337696 6.042206,9.330768 6.610685,16.847365 0.74634,9.868325 -1.586587,15.222998 -8.366015,19.202181 C 52.680941,71.385694 51.959162,71.499512 38,71.696043 30.025,71.808322 22.031017,71.528154 20.235594,71.073447 z M 19.82996,54.972131 C 20.088898,48.363863 25.599165,39.982758 31.213053,37.65847 33.174978,36.846185 29.159954,33.999208 26.05887,34.003738 19.179424,34.013788 12.243988,43.326844 13.292798,51.146302 13.838685,55.216196 16.343133,59 18.491054,59 c 0.686498,0 1.24717,-1.686684 1.338906,-4.027869 z M 47.537366,20.5 C 46.719668,15.376978 44.77662,12.452966 40.835795,10.415086 34.532363,7.1554548 27.003802,10.727042 25.004056,17.925743 23.118905,24.711925 22.761598,24.5 36.088318,24.5 l 12.087498,0 -0.63845,-4 z"
       id="path3023"
       inkscape:connector-curvature="0" />
    <path
       style="fill:#727272"
       d="M 19.479048,70.652278 C 13.345829,68.660191 10.297783,66.246587 8.0491072,61.601442 4.2628655,53.78011 6.1900794,40.269915 12.042926,33.603891 14.729926,30.543567 15,29.582236 15,23.078147 15,14.735082 16.96839,9.9909618 22.413751,5.209871 c 7.744822,-6.800043 19.427676,-6.800043 27.172498,0 C 55.03161,9.9909618 57,14.735082 57,23.078147 c 0,6.504089 0.270074,7.46542 2.957074,10.525744 1.626391,1.852357 3.651391,5.705939 4.5,8.563517 3.70045,12.460765 0.767842,22.295342 -7.993991,26.808055 -4.469341,2.3019 -6.138974,2.544745 -18.932347,2.753684 -9.410786,0.153695 -15.354729,-0.20089 -18.051688,-1.076869 z M 20.021962,55.25 c 0.03912,-6.679738 5.475351,-15.225073 11.191091,-17.59153 1.961925,-0.812285 -2.053099,-3.659262 -5.154183,-3.654732 -9.298846,0.01358 -16.7059777,15.089999 -10.98629,22.361403 3.023512,3.843773 4.922846,3.415836 4.949382,-1.115141 z M 47.113371,17.984061 C 44.753436,10.107301 35.491177,6.4448485 29.62882,11.070377 26.476654,13.557505 24,18.550934 24,22.419203 l 0,2.48344 8.25,-0.564015 c 4.5375,-0.310209 9.825,-0.142222 11.75,0.373305 3.115788,0.834427 3.538043,0.714404 3.846553,-1.093358 0.190604,-1.116874 -0.139328,-3.652405 -0.733182,-5.634514 z"
       id="path3021"
       inkscape:connector-curvature="0" />
    <path
       style="fill:#4f4f4f"
       d="M 19.691875,70.572337 C 13.673534,68.954291 8.3319924,63.939852 6.8694306,58.535107 4.7079207,50.547472 7.8182392,37.067656 12.85482,32.595012 14.669862,30.983198 15,29.592254 15,23.556902 15,18.131123 15.538547,15.369682 17.25,12.019856 21.769663,3.1735222 31.702983,-1.5514449 40.75,0.84164747 51.107281,3.5813275 57,11.690285 57,23.203237 c 0,6.172889 0.304883,7.178876 3.407603,11.24366 3.392972,4.445035 5.597904,11.490754 5.58682,17.852324 -0.01642,9.426292 -5.80516,16.636615 -14.927151,18.592932 -6.897793,1.479311 -25.384417,1.290873 -31.375397,-0.319816 z m 3.63806,-25.494717 c 1.426591,-2.155724 3.960961,-4.727099 5.631933,-5.714167 3.543526,-2.093211 3.752089,-2.910987 1.103873,-4.328269 C 22.664042,31.073914 13,39.569238 13,50.037085 c 0,3.319254 0.626353,4.731456 3.233259,7.289838 L 19.466518,60.5 20.101326,54.74856 c 0.407217,-3.689441 1.564735,-7.156655 3.228609,-9.67094 z M 42,24.611539 48,25.603837 48,22.7698 C 48,15.401622 42.421164,9 36,9 29.578836,9 24,15.401622 24,22.7698 l 0,2.834037 6,-0.992298 c 3.968953,-0.656397 8.031047,-0.656397 12,0 z"
       id="path3019"
       inkscape:connector-curvature="0" />
    <path
       style="fill:#2e2e2e"
       d="M 22.3264,71.019083 C 13.084655,69.05119 8.4909946,64.844261 6.8045245,56.803964 5.2889027,49.578191 7.6208709,39.299616 12.016939,33.829298 c 2.539985,-3.160673 2.983889,-4.574781 2.988638,-9.52066 0.0072,-7.494404 1.432266,-12.487102 4.658643,-16.3214333 8.274608,-9.8338127 24.396952,-9.8338127 32.67156,0 3.259713,3.8739493 4.651532,8.8357053 4.658643,16.6078073 0.0043,4.721764 0.435357,6.483958 1.913107,7.821304 2.53901,2.297773 5.746644,9.963332 6.610748,15.798279 C 67.011648,58.29871 63.062238,65.960273 54.5,69.58924 49.867767,71.552537 29.154658,72.473059 22.3264,71.019083 z M 20,56.649223 c 0,-7.309805 4.575321,-15.402247 9.971994,-17.637623 2.941413,-1.218373 3.010639,-1.373309 1.40589,-3.146536 C 27.238665,31.291278 17.489298,35.191359 14.364026,42.67119 11.285365,50.039462 13.925546,59.360584 19.25,59.921053 19.6625,59.964474 20,58.49215 20,56.649223 z M 39.664918,24.399138 c 2.840706,0.329083 5.878206,0.872048 6.75,1.206587 C 47.683602,26.092564 48,25.484074 48,22.557329 48,15.197285 42.514597,9 36,9 29.581495,9 24,15.192587 24,22.313825 l 0,3.413145 5.25,-0.963083 c 2.8875,-0.529696 7.574213,-0.693833 10.414918,-0.364749 z"
       id="path3017"
       inkscape:connector-curvature="0" />
    <path
       style="fill:#000000"
       d="M 22.871677,71.050984 C 11.158573,68.898895 6.558057,63.285962 6.7494316,51.380781 6.8704436,43.852769 8.5214859,38.631337 12.386401,33.553827 14.199166,31.172317 14.818137,28.819039 15.197916,22.864667 15.806697,13.319879 18.157524,8.5053828 24.216654,4.3942781 30.097281,0.40428761 35.233938,-0.41666377 41.911263,1.5662886 51.886428,4.5285941 57,12.473512 57,25.009542 c 0,3.907662 0.586071,5.892281 2.46906,8.361007 4.048549,5.307921 5.749893,10.59099 5.834089,18.116201 0.112294,10.036534 -2.660767,14.675592 -10.807208,18.079392 -4.566223,1.90789 -24.283145,2.833651 -31.624264,1.484842 z M 20.021962,56.25 c 0.01208,-2.0625 0.841438,-5.55386 1.84302,-7.758577 C 23.709588,44.431009 30.079676,38 32.257018,38 c 0.653085,0 0.212426,-0.975 -0.97924,-2.166667 -4.26388,-4.263879 -11.116874,-2.059116 -16.027778,5.156498 -3.275453,4.812638 -3.172086,13.178992 0.204545,16.555624 3.400487,3.400486 4.541811,3.076772 4.567417,-1.295455 z M 36,24.621903 c 3.575,0 7.7375,0.318645 9.25,0.708101 C 47.855882,26.000995 48,25.857094 48,22.584152 48,14.380067 43.277636,9 36.076484,9 33.413113,9 30.455691,9.6929477 29.116873,10.630693 26.223412,12.657351 24,17.809191 24,22.486933 c 0,3.378999 0.133329,3.51684 2.75,2.843071 1.5125,-0.389456 5.675,-0.708101 9.25,-0.708101 z"
       id="path3015"
       inkscape:connector-curvature="0" />
    <text
       transform="scale(0.87923093,1.1373576)"
       sodipodi:linespacing="125%"
       id="text3031"
       y="48.509769"
       x="29.874905"
       style="font-size:12.72953224px;font-style:normal;font-weight:normal;line-height:125%;letter-spacing:0px;word-spacing:0px;fill:#ffffff;fill-opacity:1;stroke:none;font-family:Sans"
       xml:space="preserve"><tspan
         style="font-size:12.72953224px;font-weight:bold;-inkscape-font-specification:Sans Bold"
         y="48.509769"
         x="29.874905"
         id="tspan3033"
         sodipodi:role="line">1kg</tspan></text>
  </g>
</svg>
