<?xml version="1.0" encoding="UTF-8" standalone="no"?>
<!-- Created with Inkscape (http://www.inkscape.org/) -->

<svg
   xmlns:dc="http://purl.org/dc/elements/1.1/"
   xmlns:cc="http://creativecommons.org/ns#"
   xmlns:rdf="http://www.w3.org/1999/02/22-rdf-syntax-ns#"
   xmlns:svg="http://www.w3.org/2000/svg"
   xmlns="http://www.w3.org/2000/svg"
   xmlns:xlink="http://www.w3.org/1999/xlink"
   xmlns:sodipodi="http://sodipodi.sourceforge.net/DTD/sodipodi-0.dtd"
   xmlns:inkscape="http://www.inkscape.org/namespaces/inkscape"
   width="48"
   height="48"
   id="svg1306"
   sodipodi:version="0.32"
   inkscape:version="0.48.3.1 r9886"
   sodipodi:docname="insert-text.svg"
   inkscape:export-filename="/home/lapo/Desktop/insert-link-16.png"
   inkscape:export-xdpi="90.000031"
   inkscape:export-ydpi="90.000031"
   version="1.0"
   inkscape:output_extension="org.inkscape.output.svg.inkscape">
  <defs
     id="defs1308">
    <inkscape:perspective
       sodipodi:type="inkscape:persp3d"
       inkscape:vp_x="0 : 24 : 1"
       inkscape:vp_y="0 : 1000 : 0"
       inkscape:vp_z="48 : 24 : 1"
       inkscape:persp3d-origin="24 : 16 : 1"
       id="perspective34" />
    <linearGradient
       id="linearGradient3384">
      <stop
         style="stop-color:white;stop-opacity:1"
         offset="0"
         id="stop3386" />
      <stop
         style="stop-color:#eeeeec;stop-opacity:1"
         offset="1"
         id="stop3388" />
    </linearGradient>
    <linearGradient
       inkscape:collect="always"
       id="linearGradient3276">
      <stop
         style="stop-color:white;stop-opacity:1;"
         offset="0"
         id="stop3278" />
      <stop
         style="stop-color:white;stop-opacity:0;"
         offset="1"
         id="stop3280" />
    </linearGradient>
    <linearGradient
       id="linearGradient3269">
      <stop
         id="stop3271"
         offset="0"
         style="stop-color:#fecb81;stop-opacity:1" />
      <stop
         id="stop3273"
         offset="1"
         style="stop-color:#fcaf3e;stop-opacity:1" />
    </linearGradient>
    <linearGradient
       inkscape:collect="always"
       xlink:href="#linearGradient3269"
       id="linearGradient3370"
       gradientUnits="userSpaceOnUse"
       x1="22.750002"
       y1="40.000755"
       x2="22.750002"
       y2="37.409679" />
    <linearGradient
       inkscape:collect="always"
       xlink:href="#linearGradient3276"
       id="linearGradient3374"
       gradientUnits="userSpaceOnUse"
       x1="18.875"
       y1="35.183414"
       x2="18.875"
       y2="43.978611" />
    <inkscape:perspective
       id="perspective3222"
       inkscape:persp3d-origin="32 : 21.333333 : 1"
       inkscape:vp_z="64 : 32 : 1"
       inkscape:vp_y="0 : 1000 : 0"
       inkscape:vp_x="0 : 32 : 1"
       sodipodi:type="inkscape:persp3d" />
    <linearGradient
       inkscape:collect="always"
       xlink:href="#gradient1"
       id="linearGradient3246"
       x1="1"
       y1="18.500002"
       x2="46.999996"
       y2="18.500002"
       gradientUnits="userSpaceOnUse"
       gradientTransform="matrix(0.92749823,0,0,0.92167824,-16.744802,16.248434)" />
  </defs>
  <sodipodi:namedview
     id="base"
     pagecolor="#ffffff"
     bordercolor="#666"
     borderopacity="1"
     inkscape:pageopacity="0.0"
     inkscape:pageshadow="2"
     inkscape:zoom="8.0000002"
     inkscape:cx="18.975047"
     inkscape:cy="12.323845"
     inkscape:current-layer="layer1"
     showgrid="false"
     inkscape:grid-bbox="true"
     inkscape:document-units="px"
     fill="#fcaf3e"
     stroke="#555753"
     showguides="true"
     inkscape:guide-bbox="true"
     inkscape:window-width="1085"
     inkscape:window-height="760"
     inkscape:window-x="214"
     inkscape:window-y="175"
     inkscape:showpageshadow="false"
     showborder="true"
     inkscape:grid-points="true"
     width="48px"
     height="48px"
     inkscape:window-maximized="1">
    <inkscape:grid
       id="GridFromPre046Settings"
       type="xygrid"
       originx="0px"
       originy="0px"
       spacingx="0.5px"
       spacingy="0.5px"
       color="#0000ff"
       empcolor="#0000ff"
       opacity="0.2"
       empopacity="0.4"
       empspacing="2" />
  </sodipodi:namedview>
  <metadata
     id="metadata1311">
    <rdf:RDF>
      <cc:Work
         rdf:about="">
        <dc:format>image/svg+xml</dc:format>
        <dc:type
           rdf:resource="http://purl.org/dc/dcmitype/StillImage" />
        <dc:title></dc:title>
        <dc:creator>
          <cc:Agent>
            <dc:title>Lapo Calamandrei</dc:title>
          </cc:Agent>
        </dc:creator>
        <dc:source>http://www.gnome.org</dc:source>
        <dc:contributor>
          <cc:Agent>
            <dc:title />
          </cc:Agent>
        </dc:contributor>
        <cc:license
           rdf:resource="http://creativecommons.org/licenses/GPL/2.0/" />
        <dc:subject>
          <rdf:Bag>
            <rdf:li>insert</rdf:li>
            <rdf:li>text</rdf:li>
            <rdf:li>generic</rdf:li>
          </rdf:Bag>
        </dc:subject>
      </cc:Work>
      <cc:License
         rdf:about="http://creativecommons.org/licenses/GPL/2.0/">
        <cc:permits
           rdf:resource="http://web.resource.org/cc/Reproduction" />
        <cc:permits
           rdf:resource="http://web.resource.org/cc/Distribution" />
        <cc:requires
           rdf:resource="http://web.resource.org/cc/Notice" />
        <cc:permits
           rdf:resource="http://web.resource.org/cc/DerivativeWorks" />
        <cc:requires
           rdf:resource="http://web.resource.org/cc/ShareAlike" />
        <cc:requires
           rdf:resource="http://web.resource.org/cc/SourceCode" />
      </cc:License>
    </rdf:RDF>
  </metadata>
  <g
     id="layer1"
     inkscape:label="Layer 1"
     inkscape:groupmode="layer">
    <rect
       style="fill:url(#linearGradient3246);fill-opacity:1;stroke:#000000;stroke-width:0.92458367;stroke-linecap:square;stroke-linejoin:miter;stroke-miterlimit:4;stroke-opacity:1;stroke-dasharray:none;stroke-dashoffset:1.4"
       id="rect3376"
       width="41.737419"
       height="22.120281"
       x="-15.353556"
       y="22.239342"
       rx="0.95648259"
       ry="0.9504807"
       transform="matrix(0.81760612,-0.57577794,0.59094839,0.80670937,0,0)" />
    <path
       style="font-size:17.50059891px;font-style:normal;font-weight:bold;fill:#000000;fill-opacity:1;stroke:none;font-family:Bitstream Vera Sans"
       d="m 20.094843,31.216454 -3.814285,2.686111 0.692821,2.191359 -2.452038,1.726785 -3.603001,-12.169059 2.908235,-2.048049 10.610636,7.234114 -2.45204,1.726784 -1.890328,-1.348045 m -4.643722,0.295158 2.591435,-1.824951 -4.000904,-2.786946 1.409469,4.611897 m 12.80959,-5.6419 c 0.485763,-0.342084 0.722075,-0.784305 0.708957,-1.326682 -0.0089,-0.545338 -0.267227,-1.164572 -0.774966,-1.857705 -0.507747,-0.693116 -1.023732,-1.130896 -1.54796,-1.313344 -0.52001,-0.185397 -1.022885,-0.107068 -1.508652,0.235011 -0.485758,0.342091 -0.866901,0.889591 -0.859047,1.44223 0.0089,0.545356 0.26563,1.162423 0.770205,1.851207 0.504565,0.688801 1.02055,1.126582 1.54796,1.313344 0.528446,0.179472 1.177742,-0.0021 1.663503,-0.344061 m -5.10122,-3.549008 c 0.0016,-0.64465 0.261658,-1.300612 0.495837,-1.767615 0.231005,-0.471308 0.593615,-0.880987 1.087827,-1.229034 0.874373,-0.615743 1.854254,-0.764038 2.939666,-0.444897 1.082226,0.314839 2.03429,1.033248 2.856204,2.155235 0.821904,1.122003 1.213771,2.238205 1.175593,3.34861 -0.04137,1.106093 -0.499227,1.967005 -1.373595,2.582757 -0.494217,0.34804 -1.004389,0.556278 -1.530514,0.624716 -0.529317,0.06412 -1.247947,0.0941 -1.871509,-0.110323 l 0.771136,1.052685 -2.268296,1.597389 -7.032248,-9.59979 2.268297,-1.597389 2.481598,3.387655 m 12.295209,-9.929257 1.389947,1.89743 c -0.467025,5.58e-4 -0.8949,0.05891 -1.283642,0.175054 -0.384516,0.113192 -0.743619,0.28728 -1.077311,0.522263 -0.633601,0.446207 -0.988183,0.984852 -1.063741,1.615933 -0.07451,0.623792 0.137348,1.275747 0.635569,1.955871 0.498225,0.680132 1.062261,1.087357 1.692116,1.221675 0.6309,0.127021 1.263153,-0.03257 1.896757,-0.478774 0.354808,-0.249861 0.650951,-0.540498 0.888423,-0.871903 0.241682,-0.334366 0.419953,-0.702881 0.534792,-1.105531 l 1.394707,1.903929 c -0.256447,0.384168 -0.544611,0.738137 -0.86449,1.061905 -0.312494,0.325136 -0.652485,0.6171 -1.019971,0.875891 -1.279877,0.90132 -2.526906,1.270582 -3.741089,1.107782 -1.21735,-0.167135 -2.265543,-0.850685 -3.144575,-2.050661 -0.879027,-1.199968 -1.203326,-2.390019 -0.972906,-3.57015 0.227262,-1.184458 0.98083,-2.227348 2.260701,-3.128675 0.371715,-0.26176 0.762479,-0.484411 1.172294,-0.667955 0.410861,-0.190826 0.845002,-0.345521 1.302419,-0.464084"
       id="text3378"
       sodipodi:nodetypes="ccccccccccccccsssssssccsssssssccccccccsssssssccsssssssc"
       inkscape:connector-curvature="0" />
    <g
       id="g3179"
       transform="matrix(0.75832822,-0.53403302,0.54466427,0.74352648,23.527693,-16.349905)">
      <radialGradient
         gradientTransform="matrix(0.5714,0,0,0.3333,26,35)"
         r="64"
         cy="0"
         cx="0"
         gradientUnits="userSpaceOnUse"
         id="gradient0">
        <stop
           id="stop3186"
           stop-color="#fffcc0"
           offset="1" />
        <stop
           id="stop3188"
           stop-color="#f1b706"
           offset="0.4886" />
      </radialGradient>
      <linearGradient
         y2="27.99"
         x2="118.33"
         y1="-17.09"
         x1="107.04"
         gradientUnits="userSpaceOnUse"
         id="gradient1">
        <stop
           id="stop3195"
           stop-color="#ffefa5"
           offset="0" />
        <stop
           id="stop3197"
           stop-color="#fffcc0"
           offset="0.7424" />
        <stop
           id="stop3199"
           stop-color="#fff890"
           offset="1" />
      </linearGradient>
      <linearGradient
         y2="-37.849998"
         x2="-28.459999"
         y1="-15.78"
         x1="-47.139999"
         gradientUnits="userSpaceOnUse"
         id="gradient2">
        <stop
           id="stop3204"
           stop-color="#010101"
           offset="0" />
        <stop
           id="stop3206"
           stop-color="#9e9e9e"
           offset="1" />
      </linearGradient>
      <linearGradient
         y2="-37.849998"
         x2="-28.459999"
         y1="-15.78"
         x1="-47.139999"
         gradientUnits="userSpaceOnUse"
         id="gradient3">
        <stop
           id="stop3211"
           stop-color="#010101"
           offset="0" />
        <stop
           id="stop3213"
           stop-color="#9e9e9e"
           offset="1" />
      </linearGradient>
    </g>
  </g>
</svg>
