<?xml version="1.0"?><svg width="640" height="480" xmlns="http://www.w3.org/2000/svg">
 <title>Links</title>
 <g>
  <path stroke-width="1.0000000pt" stroke="#000000" fill="#ff0000" id="path1088" d="m41.799931,60.185539c-8.373001,0.034 -16.41638,3.172623 -23.68474,7.103508c-6.47714,3.640366 -12.65691,9.062561 -14.652431,16.4842c-1.70466,6.55394 0.83482,13.78112 5.60874,18.418762c5.01155,4.68399 12.396291,5.60479 18.942639,4.614792c7.617762,-1.205818 14.89065,-4.26178 21.399542,-8.351143c5.84716,-3.781639 11.130619,-9.360245 12.328629,-16.456924c0.921932,-6.036171 -1.172588,-11.646034 -5.507038,-15.890297c-2.214172,2.964546 -4.124081,5.547592 -5.494263,9.00161c-0.195469,1.699287 0.698761,3.280731 0.091412,5.16539c-0.863701,4.422722 -4.70385,7.395317 -8.312622,9.657822c-5.405918,3.096664 -11.318548,5.676445 -17.579809,6.27417c-3.574188,0.327545 -7.846649,-0.47995 -9.787899,-3.842735c-1.81106,-2.776482 -1.43655,-6.528275 0.5612,-9.103195c3.66846,-4.93116 9.45962,-7.62101 15.02502,-9.837479c3.388151,-1.267586 6.438311,-2.147758 10.080839,-2.180367c0.853092,-3.78463 2.705032,-7.452599 4.853962,-10.664963c-1.404449,-0.240929 -2.44767,-0.383678 -3.87318,-0.39315z"/>
  <path stroke-width="1.0000000pt" stroke="#000000" fill="#ffff00" id="path1089" d="m77.310471,40.111691c-5.778748,0.199879 -11.41684,2.173038 -16.153679,5.470551c-6.066792,4.208008 -11.365681,9.57534 -15.428032,15.74535c-0.827309,1.599052 -2.16164,3.57756 -2.909,5.468613c-1.69635,4.049255 -2.432728,8.527306 -2.14336,12.906639c0.281773,3.409164 1.362522,6.402306 4.451401,8.022736c2.605171,-2.12381 5.41468,-4.790527 5.16935,-8.341705c-1.375229,-1.7267 -0.437149,-4.007233 0.57016,-5.772781c3.696529,-7.366364 9.334469,-13.570732 15.637512,-18.802071c2.161545,-1.718552 4.589836,-3.38134 7.226395,-4.419849c1.735275,-0.648781 3.956322,-0.554302 5.188583,1.000977c1.934158,1.510403 0.570763,3.76527 1.020103,5.37709c1.860939,2.770981 5.386833,3.094193 8.5821,1.795422c1.2145,-3.771271 1.817474,-6.380379 0.864067,-10.290112c-1.383347,-4.560169 -5.831543,-8.14476 -10.661209,-8.160858c-0.471214,-0.019341 -0.943138,-0.017059 -1.414391,0zm-5.324638,26.176151c-3.377571,3.806107 -5.858345,6.665062 -9.982731,9.651665c1.032028,4.074623 0.109898,8.22776 -1.844852,11.92511c8.527283,-2.798813 14.95858,-8.585655 20.769974,-15.232414c1.138214,-1.054565 1.629219,-1.882362 -0.216293,-1.972099c-3.089867,-0.915825 -6.506256,-2.008034 -8.726097,-4.372261z"/>
  <path fill="#0000ff" stroke="#000000" stroke-width="1.0000000pt" id="path1100" d="m93.18261,11.42164c-6.956512,-0.14692 -13.087776,4.3323 -17.09285,9.700239c-4.480057,6.052961 -8.135582,14.06982 -9.851868,21.369621c2.781944,-1.86573 9.88797,-3.14183 12.843941,-2.765991c1.990135,-5.42292 4.454208,-11.83956 9.142715,-15.46965c2.768913,-2.288229 7.001991,-2.390289 9.821571,-0.150299c3.41227,2.657249 3.600929,7.501781 3.062477,11.439598c-0.935379,5.850601 -3.084587,11.502983 -6.064224,16.613922c-2.167259,3.48962 -5.284233,7.23111 -9.673729,7.59203c-3.653641,0.255928 -7.185387,-2.382191 -7.983337,-5.957809c-0.770569,-1.04208 -0.030457,-3.306469 -1.072083,-3.353222c-1.521156,-0.44804 -5.572884,1.507973 -9.118507,4.349682c0.531662,5.957039 2.814003,10.352543 8.132332,13.2626c5.297684,3.054298 12.135399,3.771568 17.66658,0.870346c6.523315,-3.233368 10.89418,-9.529686 13.924309,-15.948925c3.548721,-7.858841 6.296677,-16.605221 4.942184,-25.310001c-0.800774,-5.528191 -3.976974,-10.805811 -8.972412,-13.4865c-2.959488,-1.64639 -6.306007,-2.69921 -9.7071,-2.75564z"/>
  <title>Layer 1</title>
 </g>
</svg>